<svg version="1.1" viewBox="0.0 0.0 600.0 371.0" fill="none" stroke="none" stroke-linecap="square" stroke-miterlimit="10" width="600" height="371" xmlns:xlink="http://www.w3.org/1999/xlink" xmlns="http://www.w3.org/2000/svg"><path fill="#ffffff" d="M0 0L600.0 0L600.0 371.0L0 371.0L0 0Z" fill-rule="nonzero"/><path stroke="#cccccc" stroke-width="1.0" stroke-linecap="butt" d="M119.5 61.5L119.5 300.5" fill-rule="nonzero"/><path stroke="#cccccc" stroke-width="1.0" stroke-linecap="butt" d="M205.5 61.5L205.5 300.5" fill-rule="nonzero"/><path stroke="#cccccc" stroke-width="1.0" stroke-linecap="butt" d="M290.5 61.5L290.5 300.5" fill-rule="nonzero"/><path stroke="#cccccc" stroke-width="1.0" stroke-linecap="butt" d="M376.5 61.5L376.5 300.5" fill-rule="nonzero"/><path stroke="#cccccc" stroke-width="1.0" stroke-linecap="butt" d="M461.5 61.5L461.5 300.5" fill-rule="nonzero"/><path stroke="#cccccc" stroke-width="1.0" stroke-linecap="butt" d="M547.5 61.5L547.5 300.5" fill-rule="nonzero"/><path stroke="#333333" stroke-width="1.0" stroke-linecap="butt" d="M119.5 300.5L581.5 300.5" fill-rule="nonzero"/><path stroke="#cccccc" stroke-width="1.0" stroke-linecap="butt" d="M119.5 240.5L581.5 240.5" fill-rule="nonzero"/><path stroke="#cccccc" stroke-width="1.0" stroke-linecap="butt" d="M119.5 181.5L581.5 181.5" fill-rule="nonzero"/><path stroke="#cccccc" stroke-width="1.0" stroke-linecap="butt" d="M119.5 121.5L581.5 121.5" fill-rule="nonzero"/><path stroke="#cccccc" stroke-width="1.0" stroke-linecap="butt" d="M119.5 61.5L581.5 61.5" fill-rule="nonzero"/><clipPath id="id_0"><path d="M119.55 61.916668L581.45 61.916668L581.45 300.45L119.55 300.45L119.55 61.916668Z" clip-rule="nonzero"/></clipPath><path stroke="#ffff00" stroke-width="2.0" stroke-linecap="butt" stroke-dasharray="2.0,3.0" clip-path="url(#id_0)" d="M119.55 193.51361C119.55 193.51361 125.25247 191.96661 128.1037 191.32578C130.95494 190.68492 133.80617 190.21431 136.65741 189.66856C139.50864 189.12282 142.35988 188.58502 145.2111 188.0513C148.06235 187.5176 150.91357 186.96747 153.76482 186.46625C156.61604 185.96503 159.46729 185.48479 162.31851 185.04399C165.16975 184.60321 168.02098 184.2122 170.87222 183.82152C173.72345 183.43082 176.57469 183.07977 179.42592 182.69981C182.27716 182.31984 185.12839 181.93213 187.97963 181.54173C190.83087 181.15134 193.6821 180.7387 196.53334 180.3574C199.38457 179.97612 202.23581 179.73376 205.08704 179.25401C207.93828 178.77426 210.7895 177.97533 213.64075 177.47891C216.49197 176.9825 219.34322 176.63719 222.19444 176.27551C225.04568 175.91383 227.89691 175.62312 230.74815 175.30885C233.59938 174.99458 236.45062 174.71521 239.30185 174.38991C242.15309 174.0646 245.00432 173.68176 247.85556 173.35706C250.70679 173.03235 253.55803 172.76053 256.40927 172.44168C259.2605 172.12285 262.11172 171.78194 264.96295 171.44402C267.8142 171.1061 270.66544 170.78854 273.51666 170.41415C276.3679 170.03975 279.21915 169.9222 282.07037 169.19763C284.9216 168.47305 287.77283 166.9659 290.62408 166.06673C293.4753 165.16756 296.32654 164.4173 299.17776 163.8026C302.02902 163.18791 304.88025 162.8591 307.73148 162.37856C310.5827 161.89801 313.43396 161.3789 316.2852 160.91933C319.1364 160.45976 321.98764 160.0941 324.8389 159.62111C327.69012 159.14812 330.54135 158.47644 333.39258 158.08138C336.24384 157.68633 339.09506 157.60287 341.9463 157.25075C344.79752 156.89864 347.64877 156.53256 350.5 155.96861C353.35123 155.40468 356.20248 154.45906 359.0537 153.8671C361.90494 153.27513 364.75616 152.70532 367.60742 152.41681C370.45865 152.1283 373.30988 152.5274 376.1611 152.13602C379.01236 151.74461 381.8636 150.70177 384.7148 150.06845C387.56604 149.43513 390.4173 148.9057 393.26852 148.3361C396.11975 147.76651 398.97098 147.17355 401.82224 146.65086C404.67346 146.12817 407.5247 145.68172 410.37592 145.19998C413.22717 144.71825 416.0784 144.2462 418.92963 143.76044C421.78085 143.27466 424.6321 142.77058 427.48334 142.28535C430.33456 141.80014 433.1858 141.35278 436.03705 140.84914C438.88828 140.34549 441.7395 139.76578 444.59073 139.26349C447.442 138.7612 450.2932 138.94118 453.14444 137.83537C455.99567 136.72958 458.84692 133.8837 461.69815 132.62874C464.54938 131.37378 467.4006 130.95683 470.25186 130.30563C473.1031 129.65443 475.9543 129.25558 478.80554 128.72156C481.6568 128.18752 484.50803 127.666214 487.35925 127.101395C490.21048 126.536575 493.06174 125.91071 495.91296 125.332634C498.7642 124.75456 501.61542 124.20361 504.46667 123.63296C507.3179 123.0623 510.16913 122.416985 513.0204 121.90871C515.8716 121.40042 518.72284 121.07784 521.5741 120.58325C524.4253 120.08865 527.27655 119.47638 530.1278 118.94113C532.979 118.40588 535.83026 117.86427 538.68146 117.37176C541.5327 116.87925 544.384 116.44141 547.23517 115.98608C550.0864 115.530754 552.9377 115.09137 555.7889 114.6398C558.64014 114.18823 561.49133 113.76463 564.3426 113.27666C567.19385 112.78869 570.04504 112.20727 572.8963 111.711975C575.74756 111.21668 581.45 110.30491 581.45 110.30491" fill-rule="nonzero"/><path fill="#000000" fill-opacity="0.0" clip-path="url(#id_0)" d="M122.55 193.51361C122.55 195.17047 121.206856 196.51361 119.55 196.51361C117.89314 196.51361 116.55 195.17047 116.55 193.51361C116.55 191.85677 117.89314 190.51361 119.55 190.51361C121.206856 190.51361 122.55 191.85677 122.55 193.51361Z" fill-rule="nonzero"/><path fill="#000000" fill-opacity="0.0" clip-path="url(#id_0)" d="M131.1037 191.32578C131.1037 192.98262 129.76056 194.32578 128.1037 194.32578C126.446846 194.32578 125.10371 192.98262 125.10371 191.32578C125.10371 189.66891 126.446846 188.32578 128.1037 188.32578C129.76056 188.32578 131.1037 189.66891 131.1037 191.32578Z" fill-rule="nonzero"/><path fill="#000000" fill-opacity="0.0" clip-path="url(#id_0)" d="M139.65741 189.66856C139.65741 191.32541 138.31425 192.66856 136.65741 192.66856C135.00055 192.66856 133.65741 191.32541 133.65741 189.66856C133.65741 188.0117 135.00055 186.66856 136.65741 186.66856C138.31425 186.66856 139.65741 188.0117 139.65741 189.66856Z" fill-rule="nonzero"/><path fill="#000000" fill-opacity="0.0" clip-path="url(#id_0)" d="M148.2111 188.0513C148.2111 189.70816 146.86797 191.0513 145.2111 191.0513C143.55426 191.0513 142.2111 189.70816 142.2111 188.0513C142.2111 186.39445 143.55426 185.0513 145.2111 185.0513C146.86797 185.0513 148.2111 186.39445 148.2111 188.0513Z" fill-rule="nonzero"/><path fill="#000000" fill-opacity="0.0" clip-path="url(#id_0)" d="M156.76482 186.46625C156.76482 188.12311 155.42168 189.46625 153.76482 189.46625C152.10796 189.46625 150.76482 188.12311 150.76482 186.46625C150.76482 184.8094 152.10796 183.46625 153.76482 183.46625C155.42168 183.46625 156.76482 184.8094 156.76482 186.46625Z" fill-rule="nonzero"/><path fill="#000000" fill-opacity="0.0" clip-path="url(#id_0)" d="M165.31851 185.04399C165.31851 186.70085 163.97537 188.04399 162.31851 188.04399C160.66167 188.04399 159.31851 186.70085 159.31851 185.04399C159.31851 183.38715 160.66167 182.04399 162.31851 182.04399C163.97537 182.04399 165.31851 183.38715 165.31851 185.04399Z" fill-rule="nonzero"/><path fill="#000000" fill-opacity="0.0" clip-path="url(#id_0)" d="M173.87222 183.82152C173.87222 185.47836 172.52908 186.82152 170.87222 186.82152C169.21536 186.82152 167.87222 185.47836 167.87222 183.82152C167.87222 182.16466 169.21536 180.82152 170.87222 180.82152C172.52908 180.82152 173.87222 182.16466 173.87222 183.82152Z" fill-rule="nonzero"/><path fill="#000000" fill-opacity="0.0" clip-path="url(#id_0)" d="M182.42592 182.69981C182.42592 184.35666 181.08278 185.69981 179.42592 185.69981C177.76907 185.69981 176.42592 184.35666 176.42592 182.69981C176.42592 181.04295 177.76907 179.69981 179.42592 179.69981C181.08278 179.69981 182.42592 181.04295 182.42592 182.69981Z" fill-rule="nonzero"/><path fill="#000000" fill-opacity="0.0" clip-path="url(#id_0)" d="M190.97963 181.54173C190.97963 183.19858 189.63649 184.54173 187.97963 184.54173C186.32277 184.54173 184.97963 183.19858 184.97963 181.54173C184.97963 179.88487 186.32277 178.54173 187.97963 178.54173C189.63649 178.54173 190.97963 179.88487 190.97963 181.54173Z" fill-rule="nonzero"/><path fill="#000000" fill-opacity="0.0" clip-path="url(#id_0)" d="M199.53334 180.3574C199.53334 182.01427 198.19019 183.3574 196.53334 183.3574C194.87648 183.3574 193.53334 182.01427 193.53334 180.3574C193.53334 178.70056 194.87648 177.3574 196.53334 177.3574C198.19019 177.3574 199.53334 178.70056 199.53334 180.3574Z" fill-rule="nonzero"/><path fill="#000000" fill-opacity="0.0" clip-path="url(#id_0)" d="M208.08704 179.25401C208.08704 180.91087 206.7439 182.25401 205.08704 182.25401C203.43018 182.25401 202.08704 180.91087 202.08704 179.25401C202.08704 177.59717 203.43018 176.25401 205.08704 176.25401C206.7439 176.25401 208.08704 177.59717 208.08704 179.25401Z" fill-rule="nonzero"/><path fill="#000000" fill-opacity="0.0" clip-path="url(#id_0)" d="M216.64075 177.47891C216.64075 179.13576 215.29759 180.47891 213.64075 180.47891C211.98389 180.47891 210.64075 179.13576 210.64075 177.47891C210.64075 175.82205 211.98389 174.47891 213.64075 174.47891C215.29759 174.47891 216.64075 175.82205 216.64075 177.47891Z" fill-rule="nonzero"/><path fill="#000000" fill-opacity="0.0" clip-path="url(#id_0)" d="M225.19444 176.27551C225.19444 177.93236 223.8513 179.27551 222.19444 179.27551C220.5376 179.27551 219.19444 177.93236 219.19444 176.27551C219.19444 174.61865 220.5376 173.27551 222.19444 173.27551C223.8513 173.27551 225.19444 174.61865 225.19444 176.27551Z" fill-rule="nonzero"/><path fill="#000000" fill-opacity="0.0" clip-path="url(#id_0)" d="M233.74815 175.30885C233.74815 176.96571 232.405 178.30885 230.74815 178.30885C229.0913 178.30885 227.74815 176.96571 227.74815 175.30885C227.74815 173.652 229.0913 172.30885 230.74815 172.30885C232.405 172.30885 233.74815 173.652 233.74815 175.30885Z" fill-rule="nonzero"/><path fill="#000000" fill-opacity="0.0" clip-path="url(#id_0)" d="M242.30185 174.38991C242.30185 176.04675 240.95871 177.38991 239.30185 177.38991C237.645 177.38991 236.30185 176.04675 236.30185 174.38991C236.30185 172.73305 237.645 171.38991 239.30185 171.38991C240.95871 171.38991 242.30185 172.73305 242.30185 174.38991Z" fill-rule="nonzero"/><path fill="#000000" fill-opacity="0.0" clip-path="url(#id_0)" d="M250.85556 173.35706C250.85556 175.01392 249.5124 176.35706 247.85556 176.35706C246.1987 176.35706 244.85556 175.01392 244.85556 173.35706C244.85556 171.7002 246.1987 170.35706 247.85556 170.35706C249.5124 170.35706 250.85556 171.7002 250.85556 173.35706Z" fill-rule="nonzero"/><path fill="#000000" fill-opacity="0.0" clip-path="url(#id_0)" d="M259.40927 172.44168C259.40927 174.09854 258.0661 175.44168 256.40927 175.44168C254.75241 175.44168 253.40926 174.09854 253.40926 172.44168C253.40926 170.78484 254.75241 169.44168 256.40927 169.44168C258.0661 169.44168 259.40927 170.78484 259.40927 172.44168Z" fill-rule="nonzero"/><path fill="#000000" fill-opacity="0.0" clip-path="url(#id_0)" d="M267.96295 171.44402C267.96295 173.10088 266.6198 174.44402 264.96295 174.44402C263.30612 174.44402 261.96295 173.10088 261.96295 171.44402C261.96295 169.78717 263.30612 168.44402 264.96295 168.44402C266.6198 168.44402 267.96295 169.78717 267.96295 171.44402Z" fill-rule="nonzero"/><path fill="#000000" fill-opacity="0.0" clip-path="url(#id_0)" d="M276.51666 170.41415C276.51666 172.071 275.17352 173.41415 273.51666 173.41415C271.8598 173.41415 270.51666 172.071 270.51666 170.41415C270.51666 168.7573 271.8598 167.41415 273.51666 167.41415C275.17352 167.41415 276.51666 168.7573 276.51666 170.41415Z" fill-rule="nonzero"/><path fill="#000000" fill-opacity="0.0" clip-path="url(#id_0)" d="M285.07037 169.19763C285.07037 170.85448 283.72723 172.19763 282.07037 172.19763C280.4135 172.19763 279.07037 170.85448 279.07037 169.19763C279.07037 167.54077 280.4135 166.19763 282.07037 166.19763C283.72723 166.19763 285.07037 167.54077 285.07037 169.19763Z" fill-rule="nonzero"/><path fill="#000000" fill-opacity="0.0" clip-path="url(#id_0)" d="M293.62408 166.06673C293.62408 167.72357 292.2809 169.06673 290.62408 169.06673C288.96722 169.06673 287.62408 167.72357 287.62408 166.06673C287.62408 164.40987 288.96722 163.06673 290.62408 163.06673C292.2809 163.06673 293.62408 164.40987 293.62408 166.06673Z" fill-rule="nonzero"/><path fill="#000000" fill-opacity="0.0" clip-path="url(#id_0)" d="M302.17776 163.8026C302.17776 165.45946 300.83463 166.8026 299.17776 166.8026C297.52094 166.8026 296.17776 165.45946 296.17776 163.8026C296.17776 162.14575 297.52094 160.8026 299.17776 160.8026C300.83463 160.8026 302.17776 162.14575 302.17776 163.8026Z" fill-rule="nonzero"/><path fill="#000000" fill-opacity="0.0" clip-path="url(#id_0)" d="M310.73148 162.37856C310.73148 164.03542 309.38834 165.37856 307.73148 165.37856C306.07462 165.37856 304.73148 164.03542 304.73148 162.37856C304.73148 160.72171 306.07462 159.37856 307.73148 159.37856C309.38834 159.37856 310.73148 160.72171 310.73148 162.37856Z" fill-rule="nonzero"/><path fill="#000000" fill-opacity="0.0" clip-path="url(#id_0)" d="M319.2852 160.91933C319.2852 162.57619 317.94205 163.91933 316.2852 163.91933C314.62833 163.91933 313.2852 162.57619 313.2852 160.91933C313.2852 159.26248 314.62833 157.91933 316.2852 157.91933C317.94205 157.91933 319.2852 159.26248 319.2852 160.91933Z" fill-rule="nonzero"/><path fill="#000000" fill-opacity="0.0" clip-path="url(#id_0)" d="M327.8389 159.62111C327.8389 161.27797 326.49576 162.62111 324.8389 162.62111C323.18204 162.62111 321.8389 161.27797 321.8389 159.62111C321.8389 157.96426 323.18204 156.62111 324.8389 156.62111C326.49576 156.62111 327.8389 157.96426 327.8389 159.62111Z" fill-rule="nonzero"/><path fill="#000000" fill-opacity="0.0" clip-path="url(#id_0)" d="M336.39258 158.08138C336.39258 159.73824 335.04944 161.08138 333.39258 161.08138C331.73575 161.08138 330.39258 159.73824 330.39258 158.08138C330.39258 156.42453 331.73575 155.08138 333.39258 155.08138C335.04944 155.08138 336.39258 156.42453 336.39258 158.08138Z" fill-rule="nonzero"/><path fill="#000000" fill-opacity="0.0" clip-path="url(#id_0)" d="M344.9463 157.25075C344.9463 158.90761 343.60315 160.25075 341.9463 160.25075C340.28943 160.25075 338.9463 158.90761 338.9463 157.25075C338.9463 155.5939 340.28943 154.25075 341.9463 154.25075C343.60315 154.25075 344.9463 155.5939 344.9463 157.25075Z" fill-rule="nonzero"/><path fill="#000000" fill-opacity="0.0" clip-path="url(#id_0)" d="M353.5 155.96861C353.5 157.62547 352.15686 158.96861 350.5 158.96861C348.84314 158.96861 347.5 157.62547 347.5 155.96861C347.5 154.31177 348.84314 152.96861 350.5 152.96861C352.15686 152.96861 353.5 154.31177 353.5 155.96861Z" fill-rule="nonzero"/><path fill="#000000" fill-opacity="0.0" clip-path="url(#id_0)" d="M362.0537 153.8671C362.0537 155.52394 360.71057 156.8671 359.0537 156.8671C357.39685 156.8671 356.0537 155.52394 356.0537 153.8671C356.0537 152.21024 357.39685 150.8671 359.0537 150.8671C360.71057 150.8671 362.0537 152.21024 362.0537 153.8671Z" fill-rule="nonzero"/><path fill="#000000" fill-opacity="0.0" clip-path="url(#id_0)" d="M370.60742 152.41681C370.60742 154.07367 369.26425 155.41681 367.60742 155.41681C365.95056 155.41681 364.60742 154.07367 364.60742 152.41681C364.60742 150.75995 365.95056 149.41681 367.60742 149.41681C369.26425 149.41681 370.60742 150.75995 370.60742 152.41681Z" fill-rule="nonzero"/><path fill="#000000" fill-opacity="0.0" clip-path="url(#id_0)" d="M379.1611 152.13602C379.1611 153.79286 377.81796 155.13602 376.1611 155.13602C374.50424 155.13602 373.1611 153.79286 373.1611 152.13602C373.1611 150.47916 374.50424 149.13602 376.1611 149.13602C377.81796 149.13602 379.1611 150.47916 379.1611 152.13602Z" fill-rule="nonzero"/><path fill="#000000" fill-opacity="0.0" clip-path="url(#id_0)" d="M387.7148 150.06845C387.7148 151.7253 386.37167 153.06845 384.7148 153.06845C383.05795 153.06845 381.7148 151.7253 381.7148 150.06845C381.7148 148.41159 383.05795 147.06845 384.7148 147.06845C386.37167 147.06845 387.7148 148.41159 387.7148 150.06845Z" fill-rule="nonzero"/><path fill="#000000" fill-opacity="0.0" clip-path="url(#id_0)" d="M396.26852 148.3361C396.26852 149.99295 394.92538 151.3361 393.26852 151.3361C391.61166 151.3361 390.26852 149.99295 390.26852 148.3361C390.26852 146.67924 391.61166 145.3361 393.26852 145.3361C394.92538 145.3361 396.26852 146.67924 396.26852 148.3361Z" fill-rule="nonzero"/><path fill="#000000" fill-opacity="0.0" clip-path="url(#id_0)" d="M404.82224 146.65086C404.82224 148.30772 403.47906 149.65086 401.82224 149.65086C400.16537 149.65086 398.82224 148.30772 398.82224 146.65086C398.82224 144.994 400.16537 143.65086 401.82224 143.65086C403.47906 143.65086 404.82224 144.994 404.82224 146.65086Z" fill-rule="nonzero"/><path fill="#000000" fill-opacity="0.0" clip-path="url(#id_0)" d="M413.37592 145.19998C413.37592 146.85684 412.03278 148.19998 410.37592 148.19998C408.7191 148.19998 407.37592 146.85684 407.37592 145.19998C407.37592 143.54314 408.7191 142.19998 410.37592 142.19998C412.03278 142.19998 413.37592 143.54314 413.37592 145.19998Z" fill-rule="nonzero"/><path fill="#000000" fill-opacity="0.0" clip-path="url(#id_0)" d="M421.92963 143.76044C421.92963 145.41728 420.5865 146.76044 418.92963 146.76044C417.27277 146.76044 415.92963 145.41728 415.92963 143.76044C415.92963 142.10358 417.27277 140.76044 418.92963 140.76044C420.5865 140.76044 421.92963 142.10358 421.92963 143.76044Z" fill-rule="nonzero"/><path fill="#000000" fill-opacity="0.0" clip-path="url(#id_0)" d="M430.48334 142.28535C430.48334 143.94221 429.1402 145.28535 427.48334 145.28535C425.82648 145.28535 424.48334 143.94221 424.48334 142.28535C424.48334 140.62851 425.82648 139.28535 427.48334 139.28535C429.1402 139.28535 430.48334 140.62851 430.48334 142.28535Z" fill-rule="nonzero"/><path fill="#000000" fill-opacity="0.0" clip-path="url(#id_0)" d="M439.03705 140.84914C439.03705 142.506 437.69388 143.84914 436.03705 143.84914C434.3802 143.84914 433.03705 142.506 433.03705 140.84914C433.03705 139.19228 434.3802 137.84914 436.03705 137.84914C437.69388 137.84914 439.03705 139.19228 439.03705 140.84914Z" fill-rule="nonzero"/><path fill="#000000" fill-opacity="0.0" clip-path="url(#id_0)" d="M447.59073 139.26349C447.59073 140.92033 446.2476 142.26349 444.59073 142.26349C442.9339 142.26349 441.59073 140.92033 441.59073 139.26349C441.59073 137.60663 442.9339 136.26349 444.59073 136.26349C446.2476 136.26349 447.59073 137.60663 447.59073 139.26349Z" fill-rule="nonzero"/><path fill="#000000" fill-opacity="0.0" clip-path="url(#id_0)" d="M456.14444 137.83537C456.14444 139.49223 454.8013 140.83537 453.14444 140.83537C451.48758 140.83537 450.14444 139.49223 450.14444 137.83537C450.14444 136.17853 451.48758 134.83537 453.14444 134.83537C454.8013 134.83537 456.14444 136.17853 456.14444 137.83537Z" fill-rule="nonzero"/><path fill="#000000" fill-opacity="0.0" clip-path="url(#id_0)" d="M464.69815 132.62874C464.69815 134.28558 463.355 135.62874 461.69815 135.62874C460.0413 135.62874 458.69815 134.28558 458.69815 132.62874C458.69815 130.97188 460.0413 129.62874 461.69815 129.62874C463.355 129.62874 464.69815 130.97188 464.69815 132.62874Z" fill-rule="nonzero"/><path fill="#000000" fill-opacity="0.0" clip-path="url(#id_0)" d="M473.25186 130.30563C473.25186 131.96248 471.9087 133.30563 470.25186 133.30563C468.595 133.30563 467.25186 131.96248 467.25186 130.30563C467.25186 128.64877 468.595 127.305626 470.25186 127.305626C471.9087 127.305626 473.25186 128.64877 473.25186 130.30563Z" fill-rule="nonzero"/><path fill="#000000" fill-opacity="0.0" clip-path="url(#id_0)" d="M481.80554 128.72156C481.80554 130.3784 480.4624 131.72156 478.80554 131.72156C477.1487 131.72156 475.80554 130.3784 475.80554 128.72156C475.80554 127.0647 477.1487 125.72155 478.80554 125.72155C480.4624 125.72155 481.80554 127.0647 481.80554 128.72156Z" fill-rule="nonzero"/><path fill="#000000" fill-opacity="0.0" clip-path="url(#id_0)" d="M490.35925 127.101395C490.35925 128.75826 489.0161 130.1014 487.35925 130.1014C485.7024 130.1014 484.35925 128.75826 484.35925 127.101395C484.35925 125.44454 485.7024 124.101395 487.35925 124.101395C489.0161 124.101395 490.35925 125.44454 490.35925 127.101395Z" fill-rule="nonzero"/><path fill="#000000" fill-opacity="0.0" clip-path="url(#id_0)" d="M498.91296 125.332634C498.91296 126.989494 497.56982 128.33264 495.91296 128.33264C494.2561 128.33264 492.91296 126.989494 492.91296 125.332634C492.91296 123.67578 494.2561 122.332634 495.91296 122.332634C497.56982 122.332634 498.91296 123.67578 498.91296 125.332634Z" fill-rule="nonzero"/><path fill="#000000" fill-opacity="0.0" clip-path="url(#id_0)" d="M507.46667 123.63296C507.46667 125.28981 506.12354 126.63296 504.46667 126.63296C502.8098 126.63296 501.46667 125.28981 501.46667 123.63296C501.46667 121.976105 502.8098 120.63296 504.46667 120.63296C506.12354 120.63296 507.46667 121.976105 507.46667 123.63296Z" fill-rule="nonzero"/><path fill="#000000" fill-opacity="0.0" clip-path="url(#id_0)" d="M516.0204 121.90871C516.0204 123.56556 514.67725 124.90871 513.0204 124.90871C511.36353 124.90871 510.02036 123.56556 510.02036 121.90871C510.02036 120.25185 511.36353 118.90871 513.0204 118.90871C514.67725 118.90871 516.0204 120.25185 516.0204 121.90871Z" fill-rule="nonzero"/><path fill="#000000" fill-opacity="0.0" clip-path="url(#id_0)" d="M524.5741 120.58325C524.5741 122.240105 523.23096 123.58325 521.5741 123.58325C519.91724 123.58325 518.5741 122.240105 518.5741 120.58325C518.5741 118.9264 519.91724 117.58325 521.5741 117.58325C523.23096 117.58325 524.5741 118.9264 524.5741 120.58325Z" fill-rule="nonzero"/><path fill="#000000" fill-opacity="0.0" clip-path="url(#id_0)" d="M533.1278 118.94113C533.1278 120.597984 531.7846 121.94113 530.1278 121.94113C528.47095 121.94113 527.1278 120.597984 527.1278 118.94113C527.1278 117.28428 528.47095 115.94113 530.1278 115.94113C531.7846 115.94113 533.1278 117.28428 533.1278 118.94113Z" fill-rule="nonzero"/><path fill="#000000" fill-opacity="0.0" clip-path="url(#id_0)" d="M541.68146 117.37176C541.68146 119.02862 540.3383 120.37176 538.68146 120.37176C537.0246 120.37176 535.68146 119.02862 535.68146 117.37176C535.68146 115.714905 537.0246 114.37176 538.68146 114.37176C540.3383 114.37176 541.68146 115.714905 541.68146 117.37176Z" fill-rule="nonzero"/><path fill="#000000" fill-opacity="0.0" clip-path="url(#id_0)" d="M550.23517 115.98608C550.23517 117.64294 548.892 118.98608 547.23517 118.98608C545.5783 118.98608 544.23517 117.64294 544.23517 115.98608C544.23517 114.32922 545.5783 112.98608 547.23517 112.98608C548.892 112.98608 550.23517 114.32922 550.23517 115.98608Z" fill-rule="nonzero"/><path fill="#000000" fill-opacity="0.0" clip-path="url(#id_0)" d="M558.7889 114.6398C558.7889 116.29665 557.44574 117.6398 555.7889 117.6398C554.132 117.6398 552.7889 116.29665 552.7889 114.6398C552.7889 112.98295 554.132 111.6398 555.7889 111.6398C557.44574 111.6398 558.7889 112.98295 558.7889 114.6398Z" fill-rule="nonzero"/><path fill="#000000" fill-opacity="0.0" clip-path="url(#id_0)" d="M567.3426 113.27666C567.3426 114.93351 565.99945 116.27666 564.3426 116.27666C562.6857 116.27666 561.3426 114.93351 561.3426 113.27666C561.3426 111.619804 562.6857 110.27666 564.3426 110.27666C565.99945 110.27666 567.3426 111.619804 567.3426 113.27666Z" fill-rule="nonzero"/><path fill="#000000" fill-opacity="0.0" clip-path="url(#id_0)" d="M575.8963 111.711975C575.8963 113.36883 574.55316 114.711975 572.8963 114.711975C571.23944 114.711975 569.8963 113.36883 569.8963 111.711975C569.8963 110.055115 571.23944 108.711975 572.8963 108.711975C574.55316 108.711975 575.8963 110.055115 575.8963 111.711975Z" fill-rule="nonzero"/><path fill="#000000" fill-opacity="0.0" clip-path="url(#id_0)" d="M584.45 110.30491C584.45 111.96176 583.1069 113.30491 581.45 113.30491C579.79315 113.30491 578.45 111.96176 578.45 110.30491C578.45 108.648056 579.79315 107.30491 581.45 107.30491C583.1069 107.30491 584.45 108.648056 584.45 110.30491Z" fill-rule="nonzero"/><path fill="#6aa84f" d="M341.34375 349.45L341.34375 345.8094L338.03125 340.85626L339.42188 340.85626L341.10938 343.45Q341.57812 344.16876 341.98438 344.90314Q342.375 344.23126 342.92188 343.3875L344.59375 340.85626L345.90625 340.85626L342.48438 345.8094L342.48438 349.45L341.34375 349.45ZM350.04688 347.45L351.14062 347.575Q350.89062 348.52814 350.1875 349.0594Q349.48438 349.59064 348.40625 349.59064Q347.04688 349.59064 346.23438 348.7469Q345.4375 347.90314 345.4375 346.3875Q345.4375 344.825 346.25 343.96564Q347.0625 343.09064 348.34375 343.09064Q349.59375 343.09064 350.375 343.9344Q351.17188 344.77814 351.17188 346.325Q351.17188 346.41876 351.17188 346.60626L346.53125 346.60626Q346.59375 347.6375 347.10938 348.1844Q347.625 348.71564 348.40625 348.71564Q348.98438 348.71564 349.39062 348.41876Q349.8125 348.10626 350.04688 347.45ZM346.59375 345.7469L350.0625 345.7469Q350.0 344.95 349.67188 344.5594Q349.15625 343.95 348.35938 343.95Q347.625 343.95 347.125 344.4344Q346.64062 344.91876 346.59375 345.7469ZM356.85938 348.6844Q356.26562 349.1844 355.71875 349.3875Q355.1875 349.59064 354.5625 349.59064Q353.53125 349.59064 352.98438 349.09064Q352.4375 348.59064 352.4375 347.8094Q352.4375 347.35626 352.64062 346.98126Q352.84375 346.59064 353.1875 346.3719Q353.53125 346.1375 353.95312 346.02814Q354.25 345.9344 354.89062 345.85626Q356.15625 345.71564 356.76562 345.4969Q356.76562 345.27814 356.76562 345.23126Q356.76562 344.575 356.46875 344.3094Q356.0625 343.96564 355.26562 343.96564Q354.53125 343.96564 354.17188 344.23126Q353.8125 344.48126 353.64062 345.1375L352.60938 344.9969Q352.75 344.34064 353.07812 343.9344Q353.40625 343.52814 354.01562 343.3094Q354.625 343.09064 355.42188 343.09064Q356.21875 343.09064 356.71875 343.27814Q357.21875 343.46564 357.45312 343.7469Q357.6875 344.02814 357.78125 344.46564Q357.82812 344.73126 357.82812 345.4344L357.82812 346.84064Q357.82812 348.3094 357.89062 348.7Q357.96875 349.09064 358.17188 349.45L357.0625 349.45Q356.90625 349.1219 356.85938 348.6844ZM356.76562 346.325Q356.1875 346.5594 355.04688 346.73126Q354.39062 346.825 354.125 346.95Q353.85938 347.0594 353.70312 347.27814Q353.5625 347.4969 353.5625 347.77814Q353.5625 348.2 353.875 348.48126Q354.20312 348.7625 354.8125 348.7625Q355.42188 348.7625 355.89062 348.4969Q356.375 348.23126 356.59375 347.7625Q356.76562 347.40314 356.76562 346.71564L356.76562 346.325ZM359.78125 349.45L359.78125 343.23126L360.73438 343.23126L360.73438 344.16876Q361.09375 343.5125 361.39062 343.3094Q361.70312 343.09064 362.07812 343.09064Q362.60938 343.09064 363.15625 343.41876L362.79688 344.40314Q362.40625 344.16876 362.03125 344.16876Q361.67188 344.16876 361.39062 344.3875Q361.125 344.59064 361.01562 344.96564Q360.82812 345.52814 360.82812 346.1844L360.82812 349.45L359.78125 349.45Z" fill-rule="nonzero"/><path fill="#6aa84f" d="M31.940638 215.88646L23.331263 215.88646L23.331263 214.93333L24.128138 214.93333Q23.659388 214.58958 23.425013 214.16771Q23.190638 213.73021 23.190638 213.12083Q23.190638 212.32396 23.596888 211.71458Q24.003138 211.10521 24.753138 210.80833Q25.503138 210.49583 26.393763 210.49583Q27.346888 210.49583 28.112513 210.83958Q28.878138 211.16771 29.284388 211.82396Q29.690638 212.48021 29.690638 213.19896Q29.690638 213.73021 29.471888 214.15208Q29.237513 214.57396 28.909388 214.83958L31.940638 214.83958L31.940638 215.88646ZM26.471888 214.93333Q27.675013 214.93333 28.253138 214.44896Q28.815638 213.96458 28.815638 213.27708Q28.815638 212.57396 28.221888 212.07396Q27.628138 211.57396 26.378138 211.57396Q25.190638 211.57396 24.612513 212.05833Q24.018763 212.54271 24.018763 213.23021Q24.018763 213.90208 24.643763 214.41771Q25.268763 214.93333 26.471888 214.93333ZM26.440638 209.27708Q24.706263 209.27708 23.878138 208.32396Q23.190638 207.52708 23.190638 206.37083Q23.190638 205.08958 24.034388 204.27708Q24.862513 203.44896 26.346888 203.44896Q27.550013 203.44896 28.237513 203.80833Q28.925013 204.16771 29.315638 204.87083Q29.690638 205.55833 29.690638 206.37083Q29.690638 207.66771 28.862513 208.48021Q28.018763 209.27708 26.440638 209.27708ZM26.440638 208.19896Q27.628138 208.19896 28.221888 207.68333Q28.815638 207.15208 28.815638 206.37083Q28.815638 205.57396 28.221888 205.05833Q27.628138 204.54271 26.409388 204.54271Q25.253138 204.54271 24.659388 205.07396Q24.065638 205.58958 24.065638 206.37083Q24.065638 207.15208 24.659388 207.68333Q25.237513 208.19896 26.440638 208.19896ZM31.940638 201.88646L23.331263 201.88646L23.331263 200.93333L24.128138 200.93333Q23.659388 200.58958 23.425013 200.16771Q23.190638 199.73021 23.190638 199.12083Q23.190638 198.32396 23.596888 197.71458Q24.003138 197.10521 24.753138 196.80833Q25.503138 196.49583 26.393763 196.49583Q27.346888 196.49583 28.112513 196.83958Q28.878138 197.16771 29.284388 197.82396Q29.690638 198.48021 29.690638 199.19896Q29.690638 199.73021 29.471888 200.15208Q29.237513 200.57396 28.909388 200.83958L31.940638 200.83958L31.940638 201.88646ZM26.471888 200.93333Q27.675013 200.93333 28.253138 200.44896Q28.815638 199.96458 28.815638 199.27708Q28.815638 198.57396 28.221888 198.07396Q27.628138 197.57396 26.378138 197.57396Q25.190638 197.57396 24.612513 198.05833Q24.018763 198.54271 24.018763 199.23021Q24.018763 199.90208 24.643763 200.41771Q25.268763 200.93333 26.471888 200.93333ZM29.550013 190.80833L28.628138 190.80833Q29.690638 191.54271 29.690638 192.79271Q29.690638 193.33958 29.487513 193.82396Q29.268763 194.29271 28.956263 194.52708Q28.628138 194.76146 28.159388 194.85521Q27.862513 194.91771 27.175013 194.91771L23.331263 194.91771L23.331263 193.85521L26.784388 193.85521Q27.596888 193.85521 27.893763 193.79271Q28.300013 193.69896 28.550013 193.38646Q28.784388 193.05833 28.784388 192.57396Q28.784388 192.10521 28.550013 191.69896Q28.300013 191.27708 27.878138 191.10521Q27.456263 190.91771 26.659388 190.91771L23.331263 190.91771L23.331263 189.87083L29.550013 189.87083L29.550013 190.80833ZM29.550013 187.91771L20.956263 187.91771L20.956263 186.85521L29.550013 186.85521L29.550013 187.91771ZM28.784388 180.82396Q29.284388 181.41771 29.487513 181.96458Q29.690638 182.49583 29.690638 183.12083Q29.690638 184.15208 29.190638 184.69896Q28.690638 185.24583 27.909388 185.24583Q27.456263 185.24583 27.081263 185.04271Q26.690638 184.83958 26.471888 184.49583Q26.237513 184.15208 26.128138 183.73021Q26.034388 183.43333 25.956263 182.79271Q25.815638 181.52708 25.596888 180.91771Q25.378138 180.91771 25.331263 180.91771Q24.675013 180.91771 24.409388 181.21458Q24.065638 181.62083 24.065638 182.41771Q24.065638 183.15208 24.331263 183.51146Q24.581263 183.87083 25.237513 184.04271L25.096888 185.07396Q24.440638 184.93333 24.034388 184.60521Q23.628138 184.27708 23.409388 183.66771Q23.190638 183.05833 23.190638 182.26146Q23.190638 181.46458 23.378138 180.96458Q23.565638 180.46458 23.846888 180.23021Q24.128138 179.99583 24.565638 179.90208Q24.831263 179.85521 25.534388 179.85521L26.940638 179.85521Q28.409388 179.85521 28.800013 179.79271Q29.190638 179.71458 29.550013 179.51146L29.550013 180.62083Q29.221888 180.77708 28.784388 180.82396ZM26.425013 180.91771Q26.659388 181.49583 26.831263 182.63646Q26.925013 183.29271 27.050013 183.55833Q27.159388 183.82396 27.378138 183.98021Q27.596888 184.12083 27.878138 184.12083Q28.300013 184.12083 28.581263 183.80833Q28.862513 183.48021 28.862513 182.87083Q28.862513 182.26146 28.596888 181.79271Q28.331263 181.30833 27.862513 181.08958Q27.503138 180.91771 26.815638 180.91771L26.425013 180.91771ZM28.612513 175.58958L29.534388 175.43333Q29.628138 175.88646 29.628138 176.23021Q29.628138 176.80833 29.456263 177.12083Q29.268763 177.43333 28.971888 177.57396Q28.675013 177.69896 27.721888 177.69896L24.143763 177.69896L24.143763 178.46458L23.331263 178.46458L23.331263 177.69896L21.784388 177.69896L21.159388 176.65208L23.331263 176.65208L23.331263 175.58958L24.143763 175.58958L24.143763 176.65208L27.784388 176.65208Q28.237513 176.65208 28.362513 176.60521Q28.487513 176.54271 28.565638 176.41771Q28.643763 176.29271 28.643763 176.05833Q28.643763 175.87083 28.612513 175.58958ZM22.175013 174.88646L20.956263 174.88646L20.956263 173.82396L22.175013 173.82396L22.175013 174.88646ZM29.550013 174.88646L23.331263 174.88646L23.331263 173.82396L29.550013 173.82396L29.550013 174.88646ZM26.440638 172.27708Q24.706263 172.27708 23.878138 171.32396Q23.190638 170.52708 23.190638 169.37083Q23.190638 168.08958 24.034388 167.27708Q24.862513 166.44896 26.346888 166.44896Q27.550013 166.44896 28.237513 166.80833Q28.925013 167.16771 29.315638 167.87083Q29.690638 168.55833 29.690638 169.37083Q29.690638 170.66771 28.862513 171.48021Q28.018763 172.27708 26.440638 172.27708ZM26.440638 171.19896Q27.628138 171.19896 28.221888 170.68333Q28.815638 170.15208 28.815638 169.37083Q28.815638 168.57396 28.221888 168.05833Q27.628138 167.54271 26.409388 167.54271Q25.253138 167.54271 24.659388 168.07396Q24.065638 168.58958 24.065638 169.37083Q24.065638 170.15208 24.659388 170.68333Q25.237513 171.19896 26.440638 171.19896ZM29.550013 164.88646L23.331263 164.88646L23.331263 163.94896L24.206263 163.94896Q23.190638 163.26146 23.190638 161.96458Q23.190638 161.40208 23.393763 160.93333Q23.596888 160.44896 23.925013 160.21458Q24.253138 159.98021 24.690638 159.88646Q24.987513 159.83958 25.721888 159.83958L29.550013 159.83958L29.550013 160.88646L25.768763 160.88646Q25.112513 160.88646 24.800013 161.01146Q24.487513 161.13646 24.300013 161.44896Q24.096888 161.76146 24.096888 162.18333Q24.096888 162.85521 24.534388 163.35521Q24.956263 163.83958 26.143763 163.83958L29.550013 163.83958L29.550013 164.88646Z" fill-rule="nonzero"/><path fill="#000000" d="M107.05 300.21564Q107.05 298.6844 107.3625 297.7625Q107.675 296.825 108.28438 296.325Q108.90938 295.825 109.84688 295.825Q110.53438 295.825 111.05 296.10626Q111.58125 296.3875 111.925 296.91876Q112.26875 297.4344 112.45625 298.1844Q112.64375 298.9344 112.64375 300.21564Q112.64375 301.73126 112.33125 302.65314Q112.03438 303.575 111.40938 304.09064Q110.8 304.59064 109.84688 304.59064Q108.6125 304.59064 107.89375 303.7Q107.05 302.6375 107.05 300.21564ZM108.12813 300.21564Q108.12813 302.325 108.62813 303.02814Q109.12813 303.73126 109.84688 303.73126Q110.58125 303.73126 111.06563 303.02814Q111.56563 302.325 111.56563 300.21564Q111.56563 298.09064 111.06563 297.40314Q110.58125 296.7 109.83125 296.7Q109.1125 296.7 108.675 297.3094Q108.12813 298.09064 108.12813 300.21564Z" fill-rule="nonzero"/><path fill="#000000" d="M55.01875 244.81667L53.971874 244.81667L53.971874 238.09792Q53.58125 238.45729 52.95625 238.83229Q52.346874 239.19167 51.8625 239.36354L51.8625 238.34792Q52.7375 237.92604 53.39375 237.34792Q54.065624 236.75417 54.346874 236.19167L55.01875 236.19167L55.01875 244.81667ZM58.05 240.58229Q58.05 239.05104 58.3625 238.12917Q58.675 237.19167 59.284374 236.69167Q59.909374 236.19167 60.846874 236.19167Q61.534374 236.19167 62.05 236.47292Q62.58125 236.75417 62.925 237.28542Q63.26875 237.80104 63.45625 238.55104Q63.64375 239.30104 63.64375 240.58229Q63.64375 242.09792 63.33125 243.01979Q63.034374 243.94167 62.409374 244.45729Q61.8 244.95729 60.846874 244.95729Q59.6125 244.95729 58.89375 244.06667Q58.05 243.00417 58.05 240.58229ZM59.128124 240.58229Q59.128124 242.69167 59.628124 243.39479Q60.128124 244.09792 60.846874 244.09792Q61.58125 244.09792 62.065624 243.39479Q62.565624 242.69167 62.565624 240.58229Q62.565624 238.45729 62.065624 237.76979Q61.58125 237.06667 60.83125 237.06667Q60.1125 237.06667 59.675 237.67604Q59.128124 238.45729 59.128124 240.58229ZM65.05 240.58229Q65.05 239.05104 65.3625 238.12917Q65.675 237.19167 66.28438 236.69167Q66.90938 236.19167 67.84688 236.19167Q68.53438 236.19167 69.05 236.47292Q69.58125 236.75417 69.925 237.28542Q70.26875 237.80104 70.45625 238.55104Q70.64375 239.30104 70.64375 240.58229Q70.64375 242.09792 70.33125 243.01979Q70.03438 243.94167 69.40938 244.45729Q68.8 244.95729 67.84688 244.95729Q66.6125 244.95729 65.89375 244.06667Q65.05 243.00417 65.05 240.58229ZM66.12813 240.58229Q66.12813 242.69167 66.62813 243.39479Q67.12813 244.09792 67.84688 244.09792Q68.58125 244.09792 69.06563 243.39479Q69.56563 242.69167 69.56563 240.58229Q69.56563 238.45729 69.06563 237.76979Q68.58125 237.06667 67.83125 237.06667Q67.1125 237.06667 66.675 237.67604Q66.12813 238.45729 66.12813 240.58229ZM72.05 240.58229Q72.05 239.05104 72.3625 238.12917Q72.675 237.19167 73.28438 236.69167Q73.90938 236.19167 74.84688 236.19167Q75.53438 236.19167 76.05 236.47292Q76.58125 236.75417 76.925 237.28542Q77.26875 237.80104 77.45625 238.55104Q77.64375 239.30104 77.64375 240.58229Q77.64375 242.09792 77.33125 243.01979Q77.03438 243.94167 76.40938 244.45729Q75.8 244.95729 74.84688 244.95729Q73.6125 244.95729 72.89375 244.06667Q72.05 243.00417 72.05 240.58229ZM73.12813 240.58229Q73.12813 242.69167 73.62813 243.39479Q74.12813 244.09792 74.84688 244.09792Q75.58125 244.09792 76.06563 243.39479Q76.56563 242.69167 76.56563 240.58229Q76.56563 238.45729 76.06563 237.76979Q75.58125 237.06667 74.83125 237.06667Q74.1125 237.06667 73.675 237.67604Q73.12813 238.45729 73.12813 240.58229ZM79.05 240.58229Q79.05 239.05104 79.3625 238.12917Q79.675 237.19167 80.28438 236.69167Q80.90938 236.19167 81.84688 236.19167Q82.53438 236.19167 83.05 236.47292Q83.58125 236.75417 83.925 237.28542Q84.26875 237.80104 84.45625 238.55104Q84.64375 239.30104 84.64375 240.58229Q84.64375 242.09792 84.33125 243.01979Q84.03438 243.94167 83.40938 244.45729Q82.8 244.95729 81.84688 244.95729Q80.6125 244.95729 79.89375 244.06667Q79.05 243.00417 79.05 240.58229ZM80.12813 240.58229Q80.12813 242.69167 80.62813 243.39479Q81.12813 244.09792 81.84688 244.09792Q82.58125 244.09792 83.06563 243.39479Q83.56563 242.69167 83.56563 240.58229Q83.56563 238.45729 83.06563 237.76979Q82.58125 237.06667 81.83125 237.06667Q81.1125 237.06667 80.675 237.67604Q80.12813 238.45729 80.12813 240.58229ZM86.05 240.58229Q86.05 239.05104 86.3625 238.12917Q86.675 237.19167 87.28438 236.69167Q87.90938 236.19167 88.84688 236.19167Q89.53438 236.19167 90.05 236.47292Q90.58125 236.75417 90.925 237.28542Q91.26875 237.80104 91.45625 238.55104Q91.64375 239.30104 91.64375 240.58229Q91.64375 242.09792 91.33125 243.01979Q91.03438 243.94167 90.40938 244.45729Q89.8 244.95729 88.84688 244.95729Q87.6125 244.95729 86.89375 244.06667Q86.05 243.00417 86.05 240.58229ZM87.12813 240.58229Q87.12813 242.69167 87.62813 243.39479Q88.12813 244.09792 88.84688 244.09792Q89.58125 244.09792 90.06563 243.39479Q90.56563 242.69167 90.56563 240.58229Q90.56563 238.45729 90.06563 237.76979Q89.58125 237.06667 88.83125 237.06667Q88.1125 237.06667 87.675 237.67604Q87.12813 238.45729 87.12813 240.58229ZM93.05 240.58229Q93.05 239.05104 93.3625 238.12917Q93.675 237.19167 94.28438 236.69167Q94.90938 236.19167 95.84688 236.19167Q96.53438 236.19167 97.05 236.47292Q97.58125 236.75417 97.925 237.28542Q98.26875 237.80104 98.45625 238.55104Q98.64375 239.30104 98.64375 240.58229Q98.64375 242.09792 98.33125 243.01979Q98.03438 243.94167 97.40938 244.45729Q96.8 244.95729 95.84688 244.95729Q94.6125 244.95729 93.89375 244.06667Q93.05 243.00417 93.05 240.58229ZM94.12813 240.58229Q94.12813 242.69167 94.62813 243.39479Q95.12813 244.09792 95.84688 244.09792Q96.58125 244.09792 97.06563 243.39479Q97.56563 242.69167 97.56563 240.58229Q97.56563 238.45729 97.06563 237.76979Q96.58125 237.06667 95.83125 237.06667Q95.1125 237.06667 94.675 237.67604Q94.12813 238.45729 94.12813 240.58229ZM100.05 240.58229Q100.05 239.05104 100.3625 238.12917Q100.675 237.19167 101.28438 236.69167Q101.90938 236.19167 102.84688 236.19167Q103.53438 236.19167 104.05 236.47292Q104.58125 236.75417 104.925 237.28542Q105.26875 237.80104 105.45625 238.55104Q105.64375 239.30104 105.64375 240.58229Q105.64375 242.09792 105.33125 243.01979Q105.03438 243.94167 104.40938 244.45729Q103.8 244.95729 102.84688 244.95729Q101.6125 244.95729 100.89375 244.06667Q100.05 243.00417 100.05 240.58229ZM101.12813 240.58229Q101.12813 242.69167 101.62813 243.39479Q102.12813 244.09792 102.84688 244.09792Q103.58125 244.09792 104.06563 243.39479Q104.56563 242.69167 104.56563 240.58229Q104.56563 238.45729 104.06563 237.76979Q103.58125 237.06667 102.83125 237.06667Q102.1125 237.06667 101.675 237.67604Q101.12813 238.45729 101.12813 240.58229ZM107.05 240.58229Q107.05 239.05104 107.3625 238.12917Q107.675 237.19167 108.28438 236.69167Q108.90938 236.19167 109.84688 236.19167Q110.53438 236.19167 111.05 236.47292Q111.58125 236.75417 111.925 237.28542Q112.26875 237.80104 112.45625 238.55104Q112.64375 239.30104 112.64375 240.58229Q112.64375 242.09792 112.33125 243.01979Q112.03438 243.94167 111.40938 244.45729Q110.8 244.95729 109.84688 244.95729Q108.6125 244.95729 107.89375 244.06667Q107.05 243.00417 107.05 240.58229ZM108.12813 240.58229Q108.12813 242.69167 108.62813 243.39479Q109.12813 244.09792 109.84688 244.09792Q110.58125 244.09792 111.06563 243.39479Q111.56563 242.69167 111.56563 240.58229Q111.56563 238.45729 111.06563 237.76979Q110.58125 237.06667 109.83125 237.06667Q109.1125 237.06667 108.675 237.67604Q108.12813 238.45729 108.12813 240.58229Z" fill-rule="nonzero"/><path fill="#000000" d="M56.596874 184.16771L56.596874 185.18333L50.909374 185.18333Q50.909374 184.80833 51.034374 184.44896Q51.253124 183.87083 51.721874 183.30833Q52.20625 182.74583 53.1125 182.01146Q54.51875 180.85521 55.003124 180.18333Q55.503124 179.51146 55.503124 178.91771Q55.503124 178.29271 55.05 177.87083Q54.596874 177.43333 53.878124 177.43333Q53.1125 177.43333 52.659374 177.88646Q52.20625 178.33958 52.190624 179.15208L51.1125 179.04271Q51.221874 177.82396 51.940624 177.19896Q52.675 176.55833 53.909374 176.55833Q55.14375 176.55833 55.8625 177.24583Q56.58125 177.93333 56.58125 178.94896Q56.58125 179.46458 56.3625 179.96458Q56.159374 180.44896 55.659374 181.01146Q55.175 181.55833 54.05 182.51146Q53.096874 183.30833 52.815624 183.60521Q52.55 183.88646 52.378124 184.16771L56.596874 184.16771ZM58.05 180.94896Q58.05 179.41771 58.3625 178.49583Q58.675 177.55833 59.284374 177.05833Q59.909374 176.55833 60.846874 176.55833Q61.534374 176.55833 62.05 176.83958Q62.58125 177.12083 62.925 177.65208Q63.26875 178.16771 63.45625 178.91771Q63.64375 179.66771 63.64375 180.94896Q63.64375 182.46458 63.33125 183.38646Q63.034374 184.30833 62.409374 184.82396Q61.8 185.32396 60.846874 185.32396Q59.6125 185.32396 58.89375 184.43333Q58.05 183.37083 58.05 180.94896ZM59.128124 180.94896Q59.128124 183.05833 59.628124 183.76146Q60.128124 184.46458 60.846874 184.46458Q61.58125 184.46458 62.065624 183.76146Q62.565624 183.05833 62.565624 180.94896Q62.565624 178.82396 62.065624 178.13646Q61.58125 177.43333 60.83125 177.43333Q60.1125 177.43333 59.675 178.04271Q59.128124 178.82396 59.128124 180.94896ZM65.05 180.94896Q65.05 179.41771 65.3625 178.49583Q65.675 177.55833 66.28438 177.05833Q66.90938 176.55833 67.84688 176.55833Q68.53438 176.55833 69.05 176.83958Q69.58125 177.12083 69.925 177.65208Q70.26875 178.16771 70.45625 178.91771Q70.64375 179.66771 70.64375 180.94896Q70.64375 182.46458 70.33125 183.38646Q70.03438 184.30833 69.40938 184.82396Q68.8 185.32396 67.84688 185.32396Q66.6125 185.32396 65.89375 184.43333Q65.05 183.37083 65.05 180.94896ZM66.12813 180.94896Q66.12813 183.05833 66.62813 183.76146Q67.12813 184.46458 67.84688 184.46458Q68.58125 184.46458 69.06563 183.76146Q69.56563 183.05833 69.56563 180.94896Q69.56563 178.82396 69.06563 178.13646Q68.58125 177.43333 67.83125 177.43333Q67.1125 177.43333 66.675 178.04271Q66.12813 178.82396 66.12813 180.94896ZM72.05 180.94896Q72.05 179.41771 72.3625 178.49583Q72.675 177.55833 73.28438 177.05833Q73.90938 176.55833 74.84688 176.55833Q75.53438 176.55833 76.05 176.83958Q76.58125 177.12083 76.925 177.65208Q77.26875 178.16771 77.45625 178.91771Q77.64375 179.66771 77.64375 180.94896Q77.64375 182.46458 77.33125 183.38646Q77.03438 184.30833 76.40938 184.82396Q75.8 185.32396 74.84688 185.32396Q73.6125 185.32396 72.89375 184.43333Q72.05 183.37083 72.05 180.94896ZM73.12813 180.94896Q73.12813 183.05833 73.62813 183.76146Q74.12813 184.46458 74.84688 184.46458Q75.58125 184.46458 76.06563 183.76146Q76.56563 183.05833 76.56563 180.94896Q76.56563 178.82396 76.06563 178.13646Q75.58125 177.43333 74.83125 177.43333Q74.1125 177.43333 73.675 178.04271Q73.12813 178.82396 73.12813 180.94896ZM79.05 180.94896Q79.05 179.41771 79.3625 178.49583Q79.675 177.55833 80.28438 177.05833Q80.90938 176.55833 81.84688 176.55833Q82.53438 176.55833 83.05 176.83958Q83.58125 177.12083 83.925 177.65208Q84.26875 178.16771 84.45625 178.91771Q84.64375 179.66771 84.64375 180.94896Q84.64375 182.46458 84.33125 183.38646Q84.03438 184.30833 83.40938 184.82396Q82.8 185.32396 81.84688 185.32396Q80.6125 185.32396 79.89375 184.43333Q79.05 183.37083 79.05 180.94896ZM80.12813 180.94896Q80.12813 183.05833 80.62813 183.76146Q81.12813 184.46458 81.84688 184.46458Q82.58125 184.46458 83.06563 183.76146Q83.56563 183.05833 83.56563 180.94896Q83.56563 178.82396 83.06563 178.13646Q82.58125 177.43333 81.83125 177.43333Q81.1125 177.43333 80.675 178.04271Q80.12813 178.82396 80.12813 180.94896ZM86.05 180.94896Q86.05 179.41771 86.3625 178.49583Q86.675 177.55833 87.28438 177.05833Q87.90938 176.55833 88.84688 176.55833Q89.53438 176.55833 90.05 176.83958Q90.58125 177.12083 90.925 177.65208Q91.26875 178.16771 91.45625 178.91771Q91.64375 179.66771 91.64375 180.94896Q91.64375 182.46458 91.33125 183.38646Q91.03438 184.30833 90.40938 184.82396Q89.8 185.32396 88.84688 185.32396Q87.6125 185.32396 86.89375 184.43333Q86.05 183.37083 86.05 180.94896ZM87.12813 180.94896Q87.12813 183.05833 87.62813 183.76146Q88.12813 184.46458 88.84688 184.46458Q89.58125 184.46458 90.06563 183.76146Q90.56563 183.05833 90.56563 180.94896Q90.56563 178.82396 90.06563 178.13646Q89.58125 177.43333 88.83125 177.43333Q88.1125 177.43333 87.675 178.04271Q87.12813 178.82396 87.12813 180.94896ZM93.05 180.94896Q93.05 179.41771 93.3625 178.49583Q93.675 177.55833 94.28438 177.05833Q94.90938 176.55833 95.84688 176.55833Q96.53438 176.55833 97.05 176.83958Q97.58125 177.12083 97.925 177.65208Q98.26875 178.16771 98.45625 178.91771Q98.64375 179.66771 98.64375 180.94896Q98.64375 182.46458 98.33125 183.38646Q98.03438 184.30833 97.40938 184.82396Q96.8 185.32396 95.84688 185.32396Q94.6125 185.32396 93.89375 184.43333Q93.05 183.37083 93.05 180.94896ZM94.12813 180.94896Q94.12813 183.05833 94.62813 183.76146Q95.12813 184.46458 95.84688 184.46458Q96.58125 184.46458 97.06563 183.76146Q97.56563 183.05833 97.56563 180.94896Q97.56563 178.82396 97.06563 178.13646Q96.58125 177.43333 95.83125 177.43333Q95.1125 177.43333 94.675 178.04271Q94.12813 178.82396 94.12813 180.94896ZM100.05 180.94896Q100.05 179.41771 100.3625 178.49583Q100.675 177.55833 101.28438 177.05833Q101.90938 176.55833 102.84688 176.55833Q103.53438 176.55833 104.05 176.83958Q104.58125 177.12083 104.925 177.65208Q105.26875 178.16771 105.45625 178.91771Q105.64375 179.66771 105.64375 180.94896Q105.64375 182.46458 105.33125 183.38646Q105.03438 184.30833 104.40938 184.82396Q103.8 185.32396 102.84688 185.32396Q101.6125 185.32396 100.89375 184.43333Q100.05 183.37083 100.05 180.94896ZM101.12813 180.94896Q101.12813 183.05833 101.62813 183.76146Q102.12813 184.46458 102.84688 184.46458Q103.58125 184.46458 104.06563 183.76146Q104.56563 183.05833 104.56563 180.94896Q104.56563 178.82396 104.06563 178.13646Q103.58125 177.43333 102.83125 177.43333Q102.1125 177.43333 101.675 178.04271Q101.12813 178.82396 101.12813 180.94896ZM107.05 180.94896Q107.05 179.41771 107.3625 178.49583Q107.675 177.55833 108.28438 177.05833Q108.90938 176.55833 109.84688 176.55833Q110.53438 176.55833 111.05 176.83958Q111.58125 177.12083 111.925 177.65208Q112.26875 178.16771 112.45625 178.91771Q112.64375 179.66771 112.64375 180.94896Q112.64375 182.46458 112.33125 183.38646Q112.03438 184.30833 111.40938 184.82396Q110.8 185.32396 109.84688 185.32396Q108.6125 185.32396 107.89375 184.43333Q107.05 183.37083 107.05 180.94896ZM108.12813 180.94896Q108.12813 183.05833 108.62813 183.76146Q109.12813 184.46458 109.84688 184.46458Q110.58125 184.46458 111.06563 183.76146Q111.56563 183.05833 111.56563 180.94896Q111.56563 178.82396 111.06563 178.13646Q110.58125 177.43333 109.83125 177.43333Q109.1125 177.43333 108.675 178.04271Q108.12813 178.82396 108.12813 180.94896Z" fill-rule="nonzero"/><path fill="#000000" d="M51.05 123.28438L52.1125 123.14375Q52.284374 124.03438 52.721874 124.44063Q53.159374 124.83125 53.784374 124.83125Q54.534374 124.83125 55.05 124.31563Q55.565624 123.8 55.565624 123.03438Q55.565624 122.31563 55.08125 121.84688Q54.6125 121.3625 53.878124 121.3625Q53.58125 121.3625 53.128124 121.4875L53.253124 120.55Q53.3625 120.56563 53.425 120.56563Q54.096874 120.56563 54.628124 120.22188Q55.175 119.8625 55.175 119.12813Q55.175 118.55 54.784374 118.175Q54.39375 117.78438 53.76875 117.78438Q53.159374 117.78438 52.7375 118.175Q52.33125 118.56563 52.221874 119.33125L51.159374 119.14375Q51.346874 118.09688 52.034374 117.51875Q52.721874 116.925 53.7375 116.925Q54.440624 116.925 55.034374 117.2375Q55.628124 117.53438 55.940624 118.05Q56.253124 118.56563 56.253124 119.15938Q56.253124 119.70625 55.95625 120.175Q55.659374 120.62813 55.08125 120.89375Q55.83125 121.06563 56.253124 121.62813Q56.675 122.175 56.675 123.01875Q56.675 124.14375 55.846874 124.925Q55.034374 125.70625 53.784374 125.70625Q52.659374 125.70625 51.909374 125.03438Q51.159374 124.34688 51.05 123.28438ZM58.05 121.31563Q58.05 119.78438 58.3625 118.8625Q58.675 117.925 59.284374 117.425Q59.909374 116.925 60.846874 116.925Q61.534374 116.925 62.05 117.20625Q62.58125 117.4875 62.925 118.01875Q63.26875 118.53438 63.45625 119.28438Q63.64375 120.03438 63.64375 121.31563Q63.64375 122.83125 63.33125 123.75313Q63.034374 124.675 62.409374 125.19063Q61.8 125.69063 60.846874 125.69063Q59.6125 125.69063 58.89375 124.8Q58.05 123.7375 58.05 121.31563ZM59.128124 121.31563Q59.128124 123.425 59.628124 124.12813Q60.128124 124.83125 60.846874 124.83125Q61.58125 124.83125 62.065624 124.12813Q62.565624 123.425 62.565624 121.31563Q62.565624 119.19063 62.065624 118.50313Q61.58125 117.8 60.83125 117.8Q60.1125 117.8 59.675 118.40938Q59.128124 119.19063 59.128124 121.31563ZM65.05 121.31563Q65.05 119.78438 65.3625 118.8625Q65.675 117.925 66.28438 117.425Q66.90938 116.925 67.84688 116.925Q68.53438 116.925 69.05 117.20625Q69.58125 117.4875 69.925 118.01875Q70.26875 118.53438 70.45625 119.28438Q70.64375 120.03438 70.64375 121.31563Q70.64375 122.83125 70.33125 123.75313Q70.03438 124.675 69.40938 125.19063Q68.8 125.69063 67.84688 125.69063Q66.6125 125.69063 65.89375 124.8Q65.05 123.7375 65.05 121.31563ZM66.12813 121.31563Q66.12813 123.425 66.62813 124.12813Q67.12813 124.83125 67.84688 124.83125Q68.58125 124.83125 69.06563 124.12813Q69.56563 123.425 69.56563 121.31563Q69.56563 119.19063 69.06563 118.50313Q68.58125 117.8 67.83125 117.8Q67.1125 117.8 66.675 118.40938Q66.12813 119.19063 66.12813 121.31563ZM72.05 121.31563Q72.05 119.78438 72.3625 118.8625Q72.675 117.925 73.28438 117.425Q73.90938 116.925 74.84688 116.925Q75.53438 116.925 76.05 117.20625Q76.58125 117.4875 76.925 118.01875Q77.26875 118.53438 77.45625 119.28438Q77.64375 120.03438 77.64375 121.31563Q77.64375 122.83125 77.33125 123.75313Q77.03438 124.675 76.40938 125.19063Q75.8 125.69063 74.84688 125.69063Q73.6125 125.69063 72.89375 124.8Q72.05 123.7375 72.05 121.31563ZM73.12813 121.31563Q73.12813 123.425 73.62813 124.12813Q74.12813 124.83125 74.84688 124.83125Q75.58125 124.83125 76.06563 124.12813Q76.56563 123.425 76.56563 121.31563Q76.56563 119.19063 76.06563 118.50313Q75.58125 117.8 74.83125 117.8Q74.1125 117.8 73.675 118.40938Q73.12813 119.19063 73.12813 121.31563ZM79.05 121.31563Q79.05 119.78438 79.3625 118.8625Q79.675 117.925 80.28438 117.425Q80.90938 116.925 81.84688 116.925Q82.53438 116.925 83.05 117.20625Q83.58125 117.4875 83.925 118.01875Q84.26875 118.53438 84.45625 119.28438Q84.64375 120.03438 84.64375 121.31563Q84.64375 122.83125 84.33125 123.75313Q84.03438 124.675 83.40938 125.19063Q82.8 125.69063 81.84688 125.69063Q80.6125 125.69063 79.89375 124.8Q79.05 123.7375 79.05 121.31563ZM80.12813 121.31563Q80.12813 123.425 80.62813 124.12813Q81.12813 124.83125 81.84688 124.83125Q82.58125 124.83125 83.06563 124.12813Q83.56563 123.425 83.56563 121.31563Q83.56563 119.19063 83.06563 118.50313Q82.58125 117.8 81.83125 117.8Q81.1125 117.8 80.675 118.40938Q80.12813 119.19063 80.12813 121.31563ZM86.05 121.31563Q86.05 119.78438 86.3625 118.8625Q86.675 117.925 87.28438 117.425Q87.90938 116.925 88.84688 116.925Q89.53438 116.925 90.05 117.20625Q90.58125 117.4875 90.925 118.01875Q91.26875 118.53438 91.45625 119.28438Q91.64375 120.03438 91.64375 121.31563Q91.64375 122.83125 91.33125 123.75313Q91.03438 124.675 90.40938 125.19063Q89.8 125.69063 88.84688 125.69063Q87.6125 125.69063 86.89375 124.8Q86.05 123.7375 86.05 121.31563ZM87.12813 121.31563Q87.12813 123.425 87.62813 124.12813Q88.12813 124.83125 88.84688 124.83125Q89.58125 124.83125 90.06563 124.12813Q90.56563 123.425 90.56563 121.31563Q90.56563 119.19063 90.06563 118.50313Q89.58125 117.8 88.83125 117.8Q88.1125 117.8 87.675 118.40938Q87.12813 119.19063 87.12813 121.31563ZM93.05 121.31563Q93.05 119.78438 93.3625 118.8625Q93.675 117.925 94.28438 117.425Q94.90938 116.925 95.84688 116.925Q96.53438 116.925 97.05 117.20625Q97.58125 117.4875 97.925 118.01875Q98.26875 118.53438 98.45625 119.28438Q98.64375 120.03438 98.64375 121.31563Q98.64375 122.83125 98.33125 123.75313Q98.03438 124.675 97.40938 125.19063Q96.8 125.69063 95.84688 125.69063Q94.6125 125.69063 93.89375 124.8Q93.05 123.7375 93.05 121.31563ZM94.12813 121.31563Q94.12813 123.425 94.62813 124.12813Q95.12813 124.83125 95.84688 124.83125Q96.58125 124.83125 97.06563 124.12813Q97.56563 123.425 97.56563 121.31563Q97.56563 119.19063 97.06563 118.50313Q96.58125 117.8 95.83125 117.8Q95.1125 117.8 94.675 118.40938Q94.12813 119.19063 94.12813 121.31563ZM100.05 121.31563Q100.05 119.78438 100.3625 118.8625Q100.675 117.925 101.28438 117.425Q101.90938 116.925 102.84688 116.925Q103.53438 116.925 104.05 117.20625Q104.58125 117.4875 104.925 118.01875Q105.26875 118.53438 105.45625 119.28438Q105.64375 120.03438 105.64375 121.31563Q105.64375 122.83125 105.33125 123.75313Q105.03438 124.675 104.40938 125.19063Q103.8 125.69063 102.84688 125.69063Q101.6125 125.69063 100.89375 124.8Q100.05 123.7375 100.05 121.31563ZM101.12813 121.31563Q101.12813 123.425 101.62813 124.12813Q102.12813 124.83125 102.84688 124.83125Q103.58125 124.83125 104.06563 124.12813Q104.56563 123.425 104.56563 121.31563Q104.56563 119.19063 104.06563 118.50313Q103.58125 117.8 102.83125 117.8Q102.1125 117.8 101.675 118.40938Q101.12813 119.19063 101.12813 121.31563ZM107.05 121.31563Q107.05 119.78438 107.3625 118.8625Q107.675 117.925 108.28438 117.425Q108.90938 116.925 109.84688 116.925Q110.53438 116.925 111.05 117.20625Q111.58125 117.4875 111.925 118.01875Q112.26875 118.53438 112.45625 119.28438Q112.64375 120.03438 112.64375 121.31563Q112.64375 122.83125 112.33125 123.75313Q112.03438 124.675 111.40938 125.19063Q110.8 125.69063 109.84688 125.69063Q108.6125 125.69063 107.89375 124.8Q107.05 123.7375 107.05 121.31563ZM108.12813 121.31563Q108.12813 123.425 108.62813 124.12813Q109.12813 124.83125 109.84688 124.83125Q110.58125 124.83125 111.06563 124.12813Q111.56563 123.425 111.56563 121.31563Q111.56563 119.19063 111.06563 118.50313Q110.58125 117.8 109.83125 117.8Q109.1125 117.8 108.675 118.40938Q108.12813 119.19063 108.12813 121.31563Z" fill-rule="nonzero"/><path fill="#000000" d="M54.425 65.916664L54.425 63.854164L50.70625 63.854164L50.70625 62.885414L54.628124 57.322914L55.4875 57.322914L55.4875 62.885414L56.64375 62.885414L56.64375 63.854164L55.4875 63.854164L55.4875 65.916664L54.425 65.916664ZM54.425 62.885414L54.425 59.02604L51.7375 62.885414L54.425 62.885414ZM58.05 61.68229Q58.05 60.15104 58.3625 59.229164Q58.675 58.291664 59.284374 57.791664Q59.909374 57.291664 60.846874 57.291664Q61.534374 57.291664 62.05 57.572914Q62.58125 57.854164 62.925 58.385414Q63.26875 58.90104 63.45625 59.65104Q63.64375 60.40104 63.64375 61.68229Q63.64375 63.197914 63.33125 64.11979Q63.034374 65.041664 62.409374 65.55729Q61.8 66.05729 60.846874 66.05729Q59.6125 66.05729 58.89375 65.166664Q58.05 64.104164 58.05 61.68229ZM59.128124 61.68229Q59.128124 63.791664 59.628124 64.49479Q60.128124 65.197914 60.846874 65.197914Q61.58125 65.197914 62.065624 64.49479Q62.565624 63.791664 62.565624 61.68229Q62.565624 59.55729 62.065624 58.86979Q61.58125 58.166664 60.83125 58.166664Q60.1125 58.166664 59.675 58.77604Q59.128124 59.55729 59.128124 61.68229ZM65.05 61.68229Q65.05 60.15104 65.3625 59.229164Q65.675 58.291664 66.28438 57.791664Q66.90938 57.291664 67.84688 57.291664Q68.53438 57.291664 69.05 57.572914Q69.58125 57.854164 69.925 58.385414Q70.26875 58.90104 70.45625 59.65104Q70.64375 60.40104 70.64375 61.68229Q70.64375 63.197914 70.33125 64.11979Q70.03438 65.041664 69.40938 65.55729Q68.8 66.05729 67.84688 66.05729Q66.6125 66.05729 65.89375 65.166664Q65.05 64.104164 65.05 61.68229ZM66.12813 61.68229Q66.12813 63.791664 66.62813 64.49479Q67.12813 65.197914 67.84688 65.197914Q68.58125 65.197914 69.06563 64.49479Q69.56563 63.791664 69.56563 61.68229Q69.56563 59.55729 69.06563 58.86979Q68.58125 58.166664 67.83125 58.166664Q67.1125 58.166664 66.675 58.77604Q66.12813 59.55729 66.12813 61.68229ZM72.05 61.68229Q72.05 60.15104 72.3625 59.229164Q72.675 58.291664 73.28438 57.791664Q73.90938 57.291664 74.84688 57.291664Q75.53438 57.291664 76.05 57.572914Q76.58125 57.854164 76.925 58.385414Q77.26875 58.90104 77.45625 59.65104Q77.64375 60.40104 77.64375 61.68229Q77.64375 63.197914 77.33125 64.11979Q77.03438 65.041664 76.40938 65.55729Q75.8 66.05729 74.84688 66.05729Q73.6125 66.05729 72.89375 65.166664Q72.05 64.104164 72.05 61.68229ZM73.12813 61.68229Q73.12813 63.791664 73.62813 64.49479Q74.12813 65.197914 74.84688 65.197914Q75.58125 65.197914 76.06563 64.49479Q76.56563 63.791664 76.56563 61.68229Q76.56563 59.55729 76.06563 58.86979Q75.58125 58.166664 74.83125 58.166664Q74.1125 58.166664 73.675 58.77604Q73.12813 59.55729 73.12813 61.68229ZM79.05 61.68229Q79.05 60.15104 79.3625 59.229164Q79.675 58.291664 80.28438 57.791664Q80.90938 57.291664 81.84688 57.291664Q82.53438 57.291664 83.05 57.572914Q83.58125 57.854164 83.925 58.385414Q84.26875 58.90104 84.45625 59.65104Q84.64375 60.40104 84.64375 61.68229Q84.64375 63.197914 84.33125 64.11979Q84.03438 65.041664 83.40938 65.55729Q82.8 66.05729 81.84688 66.05729Q80.6125 66.05729 79.89375 65.166664Q79.05 64.104164 79.05 61.68229ZM80.12813 61.68229Q80.12813 63.791664 80.62813 64.49479Q81.12813 65.197914 81.84688 65.197914Q82.58125 65.197914 83.06563 64.49479Q83.56563 63.791664 83.56563 61.68229Q83.56563 59.55729 83.06563 58.86979Q82.58125 58.166664 81.83125 58.166664Q81.1125 58.166664 80.675 58.77604Q80.12813 59.55729 80.12813 61.68229ZM86.05 61.68229Q86.05 60.15104 86.3625 59.229164Q86.675 58.291664 87.28438 57.791664Q87.90938 57.291664 88.84688 57.291664Q89.53438 57.291664 90.05 57.572914Q90.58125 57.854164 90.925 58.385414Q91.26875 58.90104 91.45625 59.65104Q91.64375 60.40104 91.64375 61.68229Q91.64375 63.197914 91.33125 64.11979Q91.03438 65.041664 90.40938 65.55729Q89.8 66.05729 88.84688 66.05729Q87.6125 66.05729 86.89375 65.166664Q86.05 64.104164 86.05 61.68229ZM87.12813 61.68229Q87.12813 63.791664 87.62813 64.49479Q88.12813 65.197914 88.84688 65.197914Q89.58125 65.197914 90.06563 64.49479Q90.56563 63.791664 90.56563 61.68229Q90.56563 59.55729 90.06563 58.86979Q89.58125 58.166664 88.83125 58.166664Q88.1125 58.166664 87.675 58.77604Q87.12813 59.55729 87.12813 61.68229ZM93.05 61.68229Q93.05 60.15104 93.3625 59.229164Q93.675 58.291664 94.28438 57.791664Q94.90938 57.291664 95.84688 57.291664Q96.53438 57.291664 97.05 57.572914Q97.58125 57.854164 97.925 58.385414Q98.26875 58.90104 98.45625 59.65104Q98.64375 60.40104 98.64375 61.68229Q98.64375 63.197914 98.33125 64.11979Q98.03438 65.041664 97.40938 65.55729Q96.8 66.05729 95.84688 66.05729Q94.6125 66.05729 93.89375 65.166664Q93.05 64.104164 93.05 61.68229ZM94.12813 61.68229Q94.12813 63.791664 94.62813 64.49479Q95.12813 65.197914 95.84688 65.197914Q96.58125 65.197914 97.06563 64.49479Q97.56563 63.791664 97.56563 61.68229Q97.56563 59.55729 97.06563 58.86979Q96.58125 58.166664 95.83125 58.166664Q95.1125 58.166664 94.675 58.77604Q94.12813 59.55729 94.12813 61.68229ZM100.05 61.68229Q100.05 60.15104 100.3625 59.229164Q100.675 58.291664 101.28438 57.791664Q101.90938 57.291664 102.84688 57.291664Q103.53438 57.291664 104.05 57.572914Q104.58125 57.854164 104.925 58.385414Q105.26875 58.90104 105.45625 59.65104Q105.64375 60.40104 105.64375 61.68229Q105.64375 63.197914 105.33125 64.11979Q105.03438 65.041664 104.40938 65.55729Q103.8 66.05729 102.84688 66.05729Q101.6125 66.05729 100.89375 65.166664Q100.05 64.104164 100.05 61.68229ZM101.12813 61.68229Q101.12813 63.791664 101.62813 64.49479Q102.12813 65.197914 102.84688 65.197914Q103.58125 65.197914 104.06563 64.49479Q104.56563 63.791664 104.56563 61.68229Q104.56563 59.55729 104.06563 58.86979Q103.58125 58.166664 102.83125 58.166664Q102.1125 58.166664 101.675 58.77604Q101.12813 59.55729 101.12813 61.68229ZM107.05 61.68229Q107.05 60.15104 107.3625 59.229164Q107.675 58.291664 108.28438 57.791664Q108.90938 57.291664 109.84688 57.291664Q110.53438 57.291664 111.05 57.572914Q111.58125 57.854164 111.925 58.385414Q112.26875 58.90104 112.45625 59.65104Q112.64375 60.40104 112.64375 61.68229Q112.64375 63.197914 112.33125 64.11979Q112.03438 65.041664 111.40938 65.55729Q110.8 66.05729 109.84688 66.05729Q108.6125 66.05729 107.89375 65.166664Q107.05 64.104164 107.05 61.68229ZM108.12813 61.68229Q108.12813 63.791664 108.62813 64.49479Q109.12813 65.197914 109.84688 65.197914Q110.58125 65.197914 111.06563 64.49479Q111.56563 63.791664 111.56563 61.68229Q111.56563 59.55729 111.06563 58.86979Q110.58125 58.166664 109.83125 58.166664Q109.1125 58.166664 108.675 58.77604Q108.12813 59.55729 108.12813 61.68229Z" fill-rule="nonzero"/><path fill="#000000" d="M110.01875 317.45L108.97188 317.45L108.97188 310.73126Q108.58125 311.09064 107.95625 311.46564Q107.34688 311.825 106.8625 311.9969L106.8625 310.98126Q107.7375 310.5594 108.39375 309.98126Q109.06563 309.3875 109.34688 308.825L110.01875 308.825L110.01875 317.45ZM113.20625 315.46564L114.22188 315.3719Q114.34688 316.09064 114.70625 316.41876Q115.08125 316.73126 115.64375 316.73126Q116.12813 316.73126 116.4875 316.5125Q116.8625 316.27814 117.09688 315.91876Q117.33125 315.54376 117.4875 314.91876Q117.64375 314.27814 117.64375 313.6219Q117.64375 313.54376 117.64375 313.40314Q117.33125 313.90314 116.78438 314.23126Q116.2375 314.54376 115.59688 314.54376Q114.51875 314.54376 113.78438 313.77814Q113.05 312.9969 113.05 311.73126Q113.05 310.41876 113.81563 309.6219Q114.59688 308.825 115.75313 308.825Q116.58125 308.825 117.26875 309.27814Q117.97188 309.73126 118.33125 310.575Q118.69063 311.40314 118.69063 312.98126Q118.69063 314.6219 118.33125 315.60626Q117.9875 316.575 117.26875 317.09064Q116.56563 317.59064 115.62813 317.59064Q114.6125 317.59064 113.97188 317.04376Q113.33125 316.48126 113.20625 315.46564ZM117.51875 311.66876Q117.51875 310.7625 117.03438 310.23126Q116.56563 309.7 115.87813 309.7Q115.175 309.7 114.64375 310.27814Q114.12813 310.84064 114.12813 311.7625Q114.12813 312.575 114.62813 313.09064Q115.12813 313.60626 115.84688 313.60626Q116.58125 313.60626 117.05 313.09064Q117.51875 312.575 117.51875 311.66876ZM125.51875 310.96564L124.47188 311.04376Q124.33125 310.41876 124.08125 310.1375Q123.64375 309.6844 123.01875 309.6844Q122.51875 309.6844 122.12813 309.96564Q121.64375 310.34064 121.34688 311.04376Q121.06563 311.73126 121.05 313.0125Q121.425 312.4344 121.97188 312.15314Q122.53438 311.8719 123.14375 311.8719Q124.19063 311.8719 124.925 312.65314Q125.675 313.4344 125.675 314.65314Q125.675 315.46564 125.31563 316.16876Q124.97188 316.85626 124.3625 317.23126Q123.75313 317.59064 122.9875 317.59064Q121.65938 317.59064 120.83125 316.6219Q120.00313 315.65314 120.00313 313.4344Q120.00313 310.9344 120.925 309.8094Q121.72188 308.825 123.08125 308.825Q124.09688 308.825 124.7375 309.40314Q125.39375 309.96564 125.51875 310.96564ZM121.22188 314.66876Q121.22188 315.21564 121.44063 315.71564Q121.675 316.2 122.08125 316.46564Q122.50313 316.73126 122.97188 316.73126Q123.62813 316.73126 124.1125 316.2Q124.59688 315.65314 124.59688 314.73126Q124.59688 313.84064 124.1125 313.325Q123.64375 312.8094 122.925 312.8094Q122.20625 312.8094 121.70625 313.325Q121.22188 313.84064 121.22188 314.66876ZM127.05 313.21564Q127.05 311.6844 127.3625 310.7625Q127.675 309.825 128.28438 309.325Q128.90938 308.825 129.84688 308.825Q130.53438 308.825 131.05 309.10626Q131.58125 309.3875 131.925 309.91876Q132.26875 310.4344 132.45625 311.1844Q132.64375 311.9344 132.64375 313.21564Q132.64375 314.73126 132.33125 315.65314Q132.03438 316.575 131.40938 317.09064Q130.8 317.59064 129.84688 317.59064Q128.6125 317.59064 127.89375 316.7Q127.05 315.6375 127.05 313.21564ZM128.12813 313.21564Q128.12813 315.325 128.62813 316.02814Q129.12813 316.73126 129.84688 316.73126Q130.58125 316.73126 131.06563 316.02814Q131.56563 315.325 131.56563 313.21564Q131.56563 311.09064 131.06563 310.40314Q130.58125 309.7 129.83125 309.7Q129.1125 309.7 128.675 310.3094Q128.12813 311.09064 128.12813 313.21564Z" fill-rule="nonzero"/><path fill="#000000" d="M195.55579 317.45L194.50891 317.45L194.50891 310.73126Q194.11829 311.09064 193.49329 311.46564Q192.88391 311.825 192.39954 311.9969L192.39954 310.98126Q193.27454 310.5594 193.93079 309.98126Q194.60266 309.3875 194.88391 308.825L195.55579 308.825L195.55579 317.45ZM198.74329 315.46564L199.75891 315.3719Q199.88391 316.09064 200.24329 316.41876Q200.61829 316.73126 201.18079 316.73126Q201.66516 316.73126 202.02454 316.5125Q202.39954 316.27814 202.63391 315.91876Q202.86829 315.54376 203.02454 314.91876Q203.18079 314.27814 203.18079 313.6219Q203.18079 313.54376 203.18079 313.40314Q202.86829 313.90314 202.32141 314.23126Q201.77454 314.54376 201.13391 314.54376Q200.05579 314.54376 199.32141 313.77814Q198.58704 312.9969 198.58704 311.73126Q198.58704 310.41876 199.35266 309.6219Q200.13391 308.825 201.29016 308.825Q202.11829 308.825 202.80579 309.27814Q203.50891 309.73126 203.86829 310.575Q204.22766 311.40314 204.22766 312.98126Q204.22766 314.6219 203.86829 315.60626Q203.52454 316.575 202.80579 317.09064Q202.10266 317.59064 201.16516 317.59064Q200.14954 317.59064 199.50891 317.04376Q198.86829 316.48126 198.74329 315.46564ZM203.05579 311.66876Q203.05579 310.7625 202.57141 310.23126Q202.10266 309.7 201.41516 309.7Q200.71204 309.7 200.18079 310.27814Q199.66516 310.84064 199.66516 311.7625Q199.66516 312.575 200.16516 313.09064Q200.66516 313.60626 201.38391 313.60626Q202.11829 313.60626 202.58704 313.09064Q203.05579 312.575 203.05579 311.66876ZM205.64954 309.98126L205.64954 308.96564L211.21204 308.96564L211.21204 309.79376Q210.39954 310.66876 209.58704 312.1219Q208.79016 313.5594 208.35266 315.09064Q208.02454 316.16876 207.94641 317.45L206.85266 317.45Q206.86829 316.4344 207.24329 314.9969Q207.63391 313.5594 208.33704 312.23126Q209.05579 310.90314 209.86829 309.98126L205.64954 309.98126ZM212.58704 313.21564Q212.58704 311.6844 212.89954 310.7625Q213.21204 309.825 213.82141 309.325Q214.44641 308.825 215.38391 308.825Q216.07141 308.825 216.58704 309.10626Q217.11829 309.3875 217.46204 309.91876Q217.80579 310.4344 217.99329 311.1844Q218.18079 311.9344 218.18079 313.21564Q218.18079 314.73126 217.86829 315.65314Q217.57141 316.575 216.94641 317.09064Q216.33704 317.59064 215.38391 317.59064Q214.14954 317.59064 213.43079 316.7Q212.58704 315.6375 212.58704 313.21564ZM213.66516 313.21564Q213.66516 315.325 214.16516 316.02814Q214.66516 316.73126 215.38391 316.73126Q216.11829 316.73126 216.60266 316.02814Q217.10266 315.325 217.10266 313.21564Q217.10266 311.09064 216.60266 310.40314Q216.11829 309.7 215.36829 309.7Q214.64954 309.7 214.21204 310.3094Q213.66516 311.09064 213.66516 313.21564Z" fill-rule="nonzero"/><path fill="#000000" d="M281.09283 317.45L280.04596 317.45L280.04596 310.73126Q279.65533 311.09064 279.03033 311.46564Q278.42096 311.825 277.93658 311.9969L277.93658 310.98126Q278.81158 310.5594 279.46783 309.98126Q280.1397 309.3875 280.42096 308.825L281.09283 308.825L281.09283 317.45ZM284.28033 315.46564L285.29596 315.3719Q285.42096 316.09064 285.78033 316.41876Q286.15533 316.73126 286.71783 316.73126Q287.2022 316.73126 287.56158 316.5125Q287.93658 316.27814 288.17096 315.91876Q288.40533 315.54376 288.56158 314.91876Q288.71783 314.27814 288.71783 313.6219Q288.71783 313.54376 288.71783 313.40314Q288.40533 313.90314 287.85846 314.23126Q287.31158 314.54376 286.67096 314.54376Q285.59283 314.54376 284.85846 313.77814Q284.12408 312.9969 284.12408 311.73126Q284.12408 310.41876 284.8897 309.6219Q285.67096 308.825 286.8272 308.825Q287.65533 308.825 288.34283 309.27814Q289.04596 309.73126 289.40533 310.575Q289.7647 311.40314 289.7647 312.98126Q289.7647 314.6219 289.40533 315.60626Q289.06158 316.575 288.34283 317.09064Q287.6397 317.59064 286.7022 317.59064Q285.68658 317.59064 285.04596 317.04376Q284.40533 316.48126 284.28033 315.46564ZM288.59283 311.66876Q288.59283 310.7625 288.10846 310.23126Q287.6397 309.7 286.9522 309.7Q286.24908 309.7 285.71783 310.27814Q285.2022 310.84064 285.2022 311.7625Q285.2022 312.575 285.7022 313.09064Q286.2022 313.60626 286.92096 313.60626Q287.65533 313.60626 288.12408 313.09064Q288.59283 312.575 288.59283 311.66876ZM292.74908 312.79376Q292.09283 312.54376 291.7647 312.10626Q291.4522 311.65314 291.4522 311.04376Q291.4522 310.10626 292.12408 309.46564Q292.81158 308.825 293.92096 308.825Q295.04596 308.825 295.73346 309.48126Q296.42096 310.1375 296.42096 311.075Q296.42096 311.66876 296.10846 312.10626Q295.79596 312.54376 295.15533 312.79376Q295.9522 313.04376 296.35846 313.6219Q296.7647 314.2 296.7647 314.9969Q296.7647 316.09064 295.98346 316.84064Q295.21783 317.59064 293.93658 317.59064Q292.67096 317.59064 291.8897 316.84064Q291.10846 316.09064 291.10846 314.96564Q291.10846 314.1219 291.53033 313.5594Q291.96783 312.9969 292.74908 312.79376ZM292.53033 310.9969Q292.53033 311.60626 292.92096 311.9969Q293.3272 312.3875 293.9522 312.3875Q294.56158 312.3875 294.9522 312.0125Q295.34283 311.6219 295.34283 311.0594Q295.34283 310.48126 294.93658 310.09064Q294.53033 309.6844 293.93658 309.6844Q293.3272 309.6844 292.92096 310.075Q292.53033 310.46564 292.53033 310.9969ZM292.2022 314.96564Q292.2022 315.41876 292.40533 315.84064Q292.62408 316.2625 293.04596 316.4969Q293.46783 316.73126 293.9522 316.73126Q294.7022 316.73126 295.18658 316.2469Q295.68658 315.7625 295.68658 315.0125Q295.68658 314.2469 295.18658 313.7469Q294.68658 313.2469 293.92096 313.2469Q293.17096 313.2469 292.68658 313.7469Q292.2022 314.23126 292.2022 314.96564ZM298.12408 313.21564Q298.12408 311.6844 298.43658 310.7625Q298.74908 309.825 299.35846 309.325Q299.98346 308.825 300.92096 308.825Q301.60846 308.825 302.12408 309.10626Q302.65533 309.3875 302.99908 309.91876Q303.34283 310.4344 303.53033 311.1844Q303.71783 311.9344 303.71783 313.21564Q303.71783 314.73126 303.40533 315.65314Q303.10846 316.575 302.48346 317.09064Q301.87408 317.59064 300.92096 317.59064Q299.68658 317.59064 298.96783 316.7Q298.12408 315.6375 298.12408 313.21564ZM299.2022 313.21564Q299.2022 315.325 299.7022 316.02814Q300.2022 316.73126 300.92096 316.73126Q301.65533 316.73126 302.1397 316.02814Q302.6397 315.325 302.6397 313.21564Q302.6397 311.09064 302.1397 310.40314Q301.65533 309.7 300.90533 309.7Q300.18658 309.7 299.74908 310.3094Q299.2022 311.09064 299.2022 313.21564Z" fill-rule="nonzero"/><path fill="#000000" d="M366.62985 317.45L365.58298 317.45L365.58298 310.73126Q365.19235 311.09064 364.56735 311.46564Q363.95798 311.825 363.4736 311.9969L363.4736 310.98126Q364.3486 310.5594 365.00485 309.98126Q365.67673 309.3875 365.95798 308.825L366.62985 308.825L366.62985 317.45ZM369.81735 315.46564L370.83298 315.3719Q370.95798 316.09064 371.31735 316.41876Q371.69235 316.73126 372.25485 316.73126Q372.73923 316.73126 373.0986 316.5125Q373.4736 316.27814 373.70798 315.91876Q373.94235 315.54376 374.0986 314.91876Q374.25485 314.27814 374.25485 313.6219Q374.25485 313.54376 374.25485 313.40314Q373.94235 313.90314 373.39548 314.23126Q372.8486 314.54376 372.20798 314.54376Q371.12985 314.54376 370.39548 313.77814Q369.6611 312.9969 369.6611 311.73126Q369.6611 310.41876 370.42673 309.6219Q371.20798 308.825 372.36423 308.825Q373.19235 308.825 373.87985 309.27814Q374.58298 309.73126 374.94235 310.575Q375.30173 311.40314 375.30173 312.98126Q375.30173 314.6219 374.94235 315.60626Q374.5986 316.575 373.87985 317.09064Q373.17673 317.59064 372.23923 317.59064Q371.2236 317.59064 370.58298 317.04376Q369.94235 316.48126 369.81735 315.46564ZM374.12985 311.66876Q374.12985 310.7625 373.64548 310.23126Q373.17673 309.7 372.48923 309.7Q371.7861 309.7 371.25485 310.27814Q370.73923 310.84064 370.73923 311.7625Q370.73923 312.575 371.23923 313.09064Q371.73923 313.60626 372.45798 313.60626Q373.19235 313.60626 373.6611 313.09064Q374.12985 312.575 374.12985 311.66876ZM376.81735 315.46564L377.83298 315.3719Q377.95798 316.09064 378.31735 316.41876Q378.69235 316.73126 379.25485 316.73126Q379.73923 316.73126 380.0986 316.5125Q380.4736 316.27814 380.70798 315.91876Q380.94235 315.54376 381.0986 314.91876Q381.25485 314.27814 381.25485 313.6219Q381.25485 313.54376 381.25485 313.40314Q380.94235 313.90314 380.39548 314.23126Q379.8486 314.54376 379.20798 314.54376Q378.12985 314.54376 377.39548 313.77814Q376.6611 312.9969 376.6611 311.73126Q376.6611 310.41876 377.42673 309.6219Q378.20798 308.825 379.36423 308.825Q380.19235 308.825 380.87985 309.27814Q381.58298 309.73126 381.94235 310.575Q382.30173 311.40314 382.30173 312.98126Q382.30173 314.6219 381.94235 315.60626Q381.5986 316.575 380.87985 317.09064Q380.17673 317.59064 379.23923 317.59064Q378.2236 317.59064 377.58298 317.04376Q376.94235 316.48126 376.81735 315.46564ZM381.12985 311.66876Q381.12985 310.7625 380.64548 310.23126Q380.17673 309.7 379.48923 309.7Q378.7861 309.7 378.25485 310.27814Q377.73923 310.84064 377.73923 311.7625Q377.73923 312.575 378.23923 313.09064Q378.73923 313.60626 379.45798 313.60626Q380.19235 313.60626 380.6611 313.09064Q381.12985 312.575 381.12985 311.66876ZM383.6611 313.21564Q383.6611 311.6844 383.9736 310.7625Q384.2861 309.825 384.89548 309.325Q385.52048 308.825 386.45798 308.825Q387.14548 308.825 387.6611 309.10626Q388.19235 309.3875 388.5361 309.91876Q388.87985 310.4344 389.06735 311.1844Q389.25485 311.9344 389.25485 313.21564Q389.25485 314.73126 388.94235 315.65314Q388.64548 316.575 388.02048 317.09064Q387.4111 317.59064 386.45798 317.59064Q385.2236 317.59064 384.50485 316.7Q383.6611 315.6375 383.6611 313.21564ZM384.73923 313.21564Q384.73923 315.325 385.23923 316.02814Q385.73923 316.73126 386.45798 316.73126Q387.19235 316.73126 387.67673 316.02814Q388.17673 315.325 388.17673 313.21564Q388.17673 311.09064 387.67673 310.40314Q387.19235 309.7 386.44235 309.7Q385.7236 309.7 385.2861 310.3094Q384.73923 311.09064 384.73923 313.21564Z" fill-rule="nonzero"/><path fill="#000000" d="M453.74503 316.4344L453.74503 317.45L448.05753 317.45Q448.05753 317.075 448.18253 316.71564Q448.40128 316.1375 448.87003 315.575Q449.3544 315.0125 450.26065 314.27814Q451.6669 313.1219 452.15128 312.45Q452.65128 311.77814 452.65128 311.1844Q452.65128 310.5594 452.19815 310.1375Q451.74503 309.7 451.02628 309.7Q450.26065 309.7 449.80753 310.15314Q449.3544 310.60626 449.33878 311.41876L448.26065 311.3094Q448.37003 310.09064 449.08878 309.46564Q449.82315 308.825 451.05753 308.825Q452.2919 308.825 453.01065 309.5125Q453.7294 310.2 453.7294 311.21564Q453.7294 311.73126 453.51065 312.23126Q453.30753 312.71564 452.80753 313.27814Q452.32315 313.825 451.19815 314.77814Q450.24503 315.575 449.96378 315.8719Q449.69815 316.15314 449.52628 316.4344L453.74503 316.4344ZM455.19815 313.21564Q455.19815 311.6844 455.51065 310.7625Q455.82315 309.825 456.43253 309.325Q457.05753 308.825 457.99503 308.825Q458.68253 308.825 459.19815 309.10626Q459.7294 309.3875 460.07315 309.91876Q460.4169 310.4344 460.6044 311.1844Q460.7919 311.9344 460.7919 313.21564Q460.7919 314.73126 460.4794 315.65314Q460.18253 316.575 459.55753 317.09064Q458.94815 317.59064 457.99503 317.59064Q456.76065 317.59064 456.0419 316.7Q455.19815 315.6375 455.19815 313.21564ZM456.27628 313.21564Q456.27628 315.325 456.77628 316.02814Q457.27628 316.73126 457.99503 316.73126Q458.7294 316.73126 459.21378 316.02814Q459.71378 315.325 459.71378 313.21564Q459.71378 311.09064 459.21378 310.40314Q458.7294 309.7 457.9794 309.7Q457.26065 309.7 456.82315 310.3094Q456.27628 311.09064 456.27628 313.21564ZM462.19815 313.21564Q462.19815 311.6844 462.51065 310.7625Q462.82315 309.825 463.43253 309.325Q464.05753 308.825 464.99503 308.825Q465.68253 308.825 466.19815 309.10626Q466.7294 309.3875 467.07315 309.91876Q467.4169 310.4344 467.6044 311.1844Q467.7919 311.9344 467.7919 313.21564Q467.7919 314.73126 467.4794 315.65314Q467.18253 316.575 466.55753 317.09064Q465.94815 317.59064 464.99503 317.59064Q463.76065 317.59064 463.0419 316.7Q462.19815 315.6375 462.19815 313.21564ZM463.27628 313.21564Q463.27628 315.325 463.77628 316.02814Q464.27628 316.73126 464.99503 316.73126Q465.7294 316.73126 466.21378 316.02814Q466.71378 315.325 466.71378 313.21564Q466.71378 311.09064 466.21378 310.40314Q465.7294 309.7 464.9794 309.7Q464.26065 309.7 463.82315 310.3094Q463.27628 311.09064 463.27628 313.21564ZM469.19815 313.21564Q469.19815 311.6844 469.51065 310.7625Q469.82315 309.825 470.43253 309.325Q471.05753 308.825 471.99503 308.825Q472.68253 308.825 473.19815 309.10626Q473.7294 309.3875 474.07315 309.91876Q474.4169 310.4344 474.6044 311.1844Q474.7919 311.9344 474.7919 313.21564Q474.7919 314.73126 474.4794 315.65314Q474.18253 316.575 473.55753 317.09064Q472.94815 317.59064 471.99503 317.59064Q470.76065 317.59064 470.0419 316.7Q469.19815 315.6375 469.19815 313.21564ZM470.27628 313.21564Q470.27628 315.325 470.77628 316.02814Q471.27628 316.73126 471.99503 316.73126Q472.7294 316.73126 473.21378 316.02814Q473.71378 315.325 473.71378 313.21564Q473.71378 311.09064 473.21378 310.40314Q472.7294 309.7 471.9794 309.7Q471.26065 309.7 470.82315 310.3094Q470.27628 311.09064 470.27628 313.21564Z" fill-rule="nonzero"/><path fill="#000000" d="M539.28204 316.4344L539.28204 317.45L533.59454 317.45Q533.59454 317.075 533.71954 316.71564Q533.9383 316.1375 534.40704 315.575Q534.8914 315.0125 535.79767 314.27814Q537.2039 313.1219 537.6883 312.45Q538.1883 311.77814 538.1883 311.1844Q538.1883 310.5594 537.73517 310.1375Q537.28204 309.7 536.5633 309.7Q535.79767 309.7 535.34454 310.15314Q534.8914 310.60626 534.8758 311.41876L533.79767 311.3094Q533.90704 310.09064 534.6258 309.46564Q535.36017 308.825 536.59454 308.825Q537.8289 308.825 538.54767 309.5125Q539.2664 310.2 539.2664 311.21564Q539.2664 311.73126 539.04767 312.23126Q538.84454 312.71564 538.34454 313.27814Q537.86017 313.825 536.73517 314.77814Q535.78204 315.575 535.5008 315.8719Q535.23517 316.15314 535.0633 316.4344L539.28204 316.4344ZM540.73517 313.21564Q540.73517 311.6844 541.04767 310.7625Q541.36017 309.825 541.96954 309.325Q542.59454 308.825 543.53204 308.825Q544.21954 308.825 544.73517 309.10626Q545.2664 309.3875 545.61017 309.91876Q545.9539 310.4344 546.1414 311.1844Q546.3289 311.9344 546.3289 313.21564Q546.3289 314.73126 546.0164 315.65314Q545.71954 316.575 545.09454 317.09064Q544.48517 317.59064 543.53204 317.59064Q542.29767 317.59064 541.5789 316.7Q540.73517 315.6375 540.73517 313.21564ZM541.8133 313.21564Q541.8133 315.325 542.3133 316.02814Q542.8133 316.73126 543.53204 316.73126Q544.2664 316.73126 544.7508 316.02814Q545.2508 315.325 545.2508 313.21564Q545.2508 311.09064 544.7508 310.40314Q544.2664 309.7 543.5164 309.7Q542.79767 309.7 542.36017 310.3094Q541.8133 311.09064 541.8133 313.21564ZM551.7039 317.45L550.65704 317.45L550.65704 310.73126Q550.2664 311.09064 549.6414 311.46564Q549.03204 311.825 548.54767 311.9969L548.54767 310.98126Q549.42267 310.5594 550.0789 309.98126Q550.7508 309.3875 551.03204 308.825L551.7039 308.825L551.7039 317.45ZM554.73517 313.21564Q554.73517 311.6844 555.04767 310.7625Q555.36017 309.825 555.96954 309.325Q556.59454 308.825 557.53204 308.825Q558.21954 308.825 558.73517 309.10626Q559.2664 309.3875 559.61017 309.91876Q559.9539 310.4344 560.1414 311.1844Q560.3289 311.9344 560.3289 313.21564Q560.3289 314.73126 560.0164 315.65314Q559.71954 316.575 559.09454 317.09064Q558.48517 317.59064 557.53204 317.59064Q556.29767 317.59064 555.5789 316.7Q554.73517 315.6375 554.73517 313.21564ZM555.8133 313.21564Q555.8133 315.325 556.3133 316.02814Q556.8133 316.73126 557.53204 316.73126Q558.2664 316.73126 558.7508 316.02814Q559.2508 315.325 559.2508 313.21564Q559.2508 311.09064 558.7508 310.40314Q558.2664 309.7 557.5164 309.7Q556.79767 309.7 556.36017 310.3094Q555.8133 311.09064 555.8133 313.21564Z" fill-rule="nonzero"/><path fill="#ff0000" d="M24.128124 37.55L24.128124 31.4875L18.6125 23.2375L20.909374 23.2375L23.7375 27.55Q24.51875 28.753124 25.190624 29.971874Q25.83125 28.846874 26.753124 27.440624L29.534374 23.2375L31.7375 23.2375L26.01875 31.4875L26.01875 37.55L24.128124 37.55ZM40.971874 34.20625L42.784374 34.440624Q42.3625 36.01875 41.190624 36.909374Q40.034374 37.784374 38.221874 37.784374Q35.95625 37.784374 34.6125 36.39375Q33.284374 34.9875 33.284374 32.45625Q33.284374 29.83125 34.628124 28.39375Q35.971874 26.940624 38.128124 26.940624Q40.20625 26.940624 41.51875 28.3625Q42.846874 29.76875 42.846874 32.346874Q42.846874 32.503124 42.83125 32.815624L35.096874 32.815624Q35.190624 34.51875 36.065624 35.425Q36.940624 36.33125 38.2375 36.33125Q39.20625 36.33125 39.878124 35.83125Q40.565624 35.315624 40.971874 34.20625ZM35.190624 31.3625L40.9875 31.3625Q40.878124 30.065624 40.33125 29.409374Q39.4875 28.39375 38.14375 28.39375Q36.940624 28.39375 36.1125 29.20625Q35.284374 30.003124 35.190624 31.3625ZM51.64375 36.26875Q50.659374 37.096874 49.753124 37.440624Q48.846874 37.784374 47.815624 37.784374Q46.1125 37.784374 45.190624 36.95625Q44.26875 36.1125 44.26875 34.815624Q44.26875 34.05 44.6125 33.425Q44.971874 32.8 45.534374 32.425Q46.096874 32.034374 46.8 31.83125Q47.315624 31.70625 48.3625 31.565624Q50.4875 31.315624 51.4875 30.971874Q51.503124 30.6125 51.503124 30.503124Q51.503124 29.440624 51.003124 28.9875Q50.33125 28.39375 49.003124 28.39375Q47.753124 28.39375 47.159374 28.83125Q46.58125 29.26875 46.3 30.378124L44.58125 30.14375Q44.815624 29.034374 45.346874 28.3625Q45.878124 27.675 46.89375 27.315624Q47.909374 26.940624 49.253124 26.940624Q50.58125 26.940624 51.409374 27.253124Q52.2375 27.565624 52.628124 28.05Q53.01875 28.51875 53.175 29.2375Q53.26875 29.690624 53.26875 30.8625L53.26875 33.20625Q53.26875 35.659374 53.378124 36.315624Q53.4875 36.95625 53.83125 37.55L51.9875 37.55Q51.721874 37.003124 51.64375 36.26875ZM51.4875 32.346874Q50.534374 32.7375 48.6125 33.003124Q47.534374 33.159374 47.08125 33.3625Q46.64375 33.55 46.39375 33.925Q46.14375 34.3 46.14375 34.76875Q46.14375 35.471874 46.675 35.940624Q47.20625 36.409374 48.2375 36.409374Q49.253124 36.409374 50.034374 35.971874Q50.83125 35.51875 51.20625 34.753124Q51.4875 34.14375 51.4875 32.9875L51.4875 32.346874ZM55.846874 37.55L55.846874 27.175L57.425 27.175L57.425 28.753124Q58.034374 27.64375 58.55 27.3Q59.065624 26.940624 59.675 26.940624Q60.565624 26.940624 61.4875 27.503124L60.878124 29.14375Q60.2375 28.753124 59.596874 28.753124Q59.01875 28.753124 58.55 29.1125Q58.096874 29.45625 57.89375 30.065624Q57.6125 31.003124 57.6125 32.1125L57.6125 37.55L55.846874 37.55ZM68.8625 41.51875L68.8625 27.175L70.47188 27.175L70.47188 28.51875Q71.03438 27.7375 71.7375 27.346874Q72.45625 26.940624 73.47188 26.940624Q74.8 26.940624 75.81563 27.628124Q76.83125 28.315624 77.34688 29.565624Q77.87813 30.8 77.87813 32.284374Q77.87813 33.878124 77.3 35.159374Q76.7375 36.425 75.64375 37.1125Q74.55 37.784374 73.34688 37.784374Q72.47188 37.784374 71.76875 37.409374Q71.08125 37.034374 70.62813 36.471874L70.62813 41.51875L68.8625 41.51875ZM70.45625 32.425Q70.45625 34.425 71.26875 35.378124Q72.08125 36.33125 73.2375 36.33125Q74.40938 36.33125 75.2375 35.346874Q76.08125 34.3625 76.08125 32.26875Q76.08125 30.3 75.25313 29.315624Q74.44063 28.315624 73.31563 28.315624Q72.19063 28.315624 71.31563 29.378124Q70.45625 30.425 70.45625 32.425ZM86.64375 36.26875Q85.65938 37.096874 84.75313 37.440624Q83.84688 37.784374 82.81563 37.784374Q81.1125 37.784374 80.19063 36.95625Q79.26875 36.1125 79.26875 34.815624Q79.26875 34.05 79.6125 33.425Q79.97188 32.8 80.53438 32.425Q81.09688 32.034374 81.8 31.83125Q82.31563 31.70625 83.3625 31.565624Q85.4875 31.315624 86.4875 30.971874Q86.50313 30.6125 86.50313 30.503124Q86.50313 29.440624 86.00313 28.9875Q85.33125 28.39375 84.00313 28.39375Q82.75313 28.39375 82.15938 28.83125Q81.58125 29.26875 81.3 30.378124L79.58125 30.14375Q79.81563 29.034374 80.34688 28.3625Q80.87813 27.675 81.89375 27.315624Q82.90938 26.940624 84.25313 26.940624Q85.58125 26.940624 86.40938 27.253124Q87.2375 27.565624 87.62813 28.05Q88.01875 28.51875 88.175 29.2375Q88.26875 29.690624 88.26875 30.8625L88.26875 33.20625Q88.26875 35.659374 88.37813 36.315624Q88.4875 36.95625 88.83125 37.55L86.9875 37.55Q86.72188 37.003124 86.64375 36.26875ZM86.4875 32.346874Q85.53438 32.7375 83.6125 33.003124Q82.53438 33.159374 82.08125 33.3625Q81.64375 33.55 81.39375 33.925Q81.14375 34.3 81.14375 34.76875Q81.14375 35.471874 81.675 35.940624Q82.20625 36.409374 83.2375 36.409374Q84.25313 36.409374 85.03438 35.971874Q85.83125 35.51875 86.20625 34.753124Q86.4875 34.14375 86.4875 32.9875L86.4875 32.346874ZM90.84688 37.55L90.84688 27.175L92.425 27.175L92.425 28.753124Q93.03438 27.64375 93.55 27.3Q94.06563 26.940624 94.675 26.940624Q95.56563 26.940624 96.4875 27.503124L95.87813 29.14375Q95.2375 28.753124 94.59688 28.753124Q94.01875 28.753124 93.55 29.1125Q93.09688 29.45625 92.89375 30.065624Q92.6125 31.003124 92.6125 32.1125L92.6125 37.55L90.84688 37.55ZM103.84688 37.55L103.84688 27.175L105.425 27.175L105.425 28.753124Q106.03438 27.64375 106.55 27.3Q107.06563 26.940624 107.675 26.940624Q108.56563 26.940624 109.4875 27.503124L108.87813 29.14375Q108.2375 28.753124 107.59688 28.753124Q107.01875 28.753124 106.55 29.1125Q106.09688 29.45625 105.89375 30.065624Q105.6125 31.003124 105.6125 32.1125L105.6125 37.55L103.84688 37.55ZM117.64375 36.26875Q116.65938 37.096874 115.75313 37.440624Q114.84688 37.784374 113.81563 37.784374Q112.1125 37.784374 111.19063 36.95625Q110.26875 36.1125 110.26875 34.815624Q110.26875 34.05 110.6125 33.425Q110.97188 32.8 111.53438 32.425Q112.09688 32.034374 112.8 31.83125Q113.31563 31.70625 114.3625 31.565624Q116.4875 31.315624 117.4875 30.971874Q117.50313 30.6125 117.50313 30.503124Q117.50313 29.440624 117.00313 28.9875Q116.33125 28.39375 115.00313 28.39375Q113.75313 28.39375 113.15938 28.83125Q112.58125 29.26875 112.3 30.378124L110.58125 30.14375Q110.81563 29.034374 111.34688 28.3625Q111.87813 27.675 112.89375 27.315624Q113.90938 26.940624 115.25313 26.940624Q116.58125 26.940624 117.40938 27.253124Q118.2375 27.565624 118.62813 28.05Q119.01875 28.51875 119.175 29.2375Q119.26875 29.690624 119.26875 30.8625L119.26875 33.20625Q119.26875 35.659374 119.37813 36.315624Q119.4875 36.95625 119.83125 37.55L117.9875 37.55Q117.72188 37.003124 117.64375 36.26875ZM117.4875 32.346874Q116.53438 32.7375 114.6125 33.003124Q113.53438 33.159374 113.08125 33.3625Q112.64375 33.55 112.39375 33.925Q112.14375 34.3 112.14375 34.76875Q112.14375 35.471874 112.675 35.940624Q113.20625 36.409374 114.2375 36.409374Q115.25313 36.409374 116.03438 35.971874Q116.83125 35.51875 117.20625 34.753124Q117.4875 34.14375 117.4875 32.9875L117.4875 32.346874ZM121.8625 41.51875L121.8625 27.175L123.47188 27.175L123.47188 28.51875Q124.03438 27.7375 124.7375 27.346874Q125.45625 26.940624 126.47188 26.940624Q127.8 26.940624 128.81563 27.628124Q129.83125 28.315624 130.34688 29.565624Q130.87813 30.8 130.87813 32.284374Q130.87813 33.878124 130.3 35.159374Q129.7375 36.425 128.64375 37.1125Q127.55 37.784374 126.34688 37.784374Q125.47188 37.784374 124.76875 37.409374Q124.08125 37.034374 123.62813 36.471874L123.62813 41.51875L121.8625 41.51875ZM123.45625 32.425Q123.45625 34.425 124.26875 35.378124Q125.08125 36.33125 126.2375 36.33125Q127.40938 36.33125 128.2375 35.346874Q129.08125 34.3625 129.08125 32.26875Q129.08125 30.3 128.25313 29.315624Q127.44063 28.315624 126.31563 28.315624Q125.19063 28.315624 124.31563 29.378124Q123.45625 30.425 123.45625 32.425ZM132.8625 41.51875L132.8625 27.175L134.47188 27.175L134.47188 28.51875Q135.03438 27.7375 135.7375 27.346874Q136.45625 26.940624 137.47188 26.940624Q138.8 26.940624 139.81563 27.628124Q140.83125 28.315624 141.34688 29.565624Q141.87813 30.8 141.87813 32.284374Q141.87813 33.878124 141.3 35.159374Q140.7375 36.425 139.64375 37.1125Q138.55 37.784374 137.34688 37.784374Q136.47188 37.784374 135.76875 37.409374Q135.08125 37.034374 134.62813 36.471874L134.62813 41.51875L132.8625 41.51875ZM134.45625 32.425Q134.45625 34.425 135.26875 35.378124Q136.08125 36.33125 137.2375 36.33125Q138.40938 36.33125 139.2375 35.346874Q140.08125 34.3625 140.08125 32.26875Q140.08125 30.3 139.25313 29.315624Q138.44063 28.315624 137.31563 28.315624Q136.19063 28.315624 135.31563 29.378124Q134.45625 30.425 134.45625 32.425ZM143.22188 32.3625Q143.22188 29.4875 144.81563 28.096874Q146.15938 26.940624 148.08125 26.940624Q150.22188 26.940624 151.56563 28.346874Q152.925 29.753124 152.925 32.221874Q152.925 34.221874 152.33125 35.378124Q151.7375 36.51875 150.58125 37.159374Q149.44063 37.784374 148.08125 37.784374Q145.89375 37.784374 144.55 36.39375Q143.22188 34.9875 143.22188 32.3625ZM145.01875 32.3625Q145.01875 34.3625 145.87813 35.346874Q146.75313 36.33125 148.08125 36.33125Q149.39375 36.33125 150.25313 35.346874Q151.12813 34.346874 151.12813 32.3Q151.12813 30.378124 150.25313 29.39375Q149.37813 28.39375 148.08125 28.39375Q146.75313 28.39375 145.87813 29.39375Q145.01875 30.378124 145.01875 32.3625ZM154.84688 37.55L154.84688 27.175L156.425 27.175L156.425 28.753124Q157.03438 27.64375 157.55 27.3Q158.06563 26.940624 158.675 26.940624Q159.56563 26.940624 160.4875 27.503124L159.87813 29.14375Q159.2375 28.753124 158.59688 28.753124Q158.01875 28.753124 157.55 29.1125Q157.09688 29.45625 156.89375 30.065624Q156.6125 31.003124 156.6125 32.1125L156.6125 37.55L154.84688 37.55ZM165.70625 35.971874L165.95625 37.534374Q165.22188 37.690624 164.62813 37.690624Q163.675 37.690624 163.14375 37.39375Q162.62813 37.08125 162.40938 36.596874Q162.19063 36.096874 162.19063 34.51875L162.19063 28.55L160.90938 28.55L160.90938 27.175L162.19063 27.175L162.19063 24.6125L163.94063 23.55L163.94063 27.175L165.70625 27.175L165.70625 28.55L163.94063 28.55L163.94063 34.6125Q163.94063 35.3625 164.03438 35.58125Q164.12813 35.784374 164.33125 35.925Q164.55 36.05 164.94063 36.05Q165.22188 36.05 165.70625 35.971874ZM173.8625 41.51875L173.8625 27.175L175.47188 27.175L175.47188 28.51875Q176.03438 27.7375 176.7375 27.346874Q177.45625 26.940624 178.47188 26.940624Q179.8 26.940624 180.81563 27.628124Q181.83125 28.315624 182.34688 29.565624Q182.87813 30.8 182.87813 32.284374Q182.87813 33.878124 182.3 35.159374Q181.7375 36.425 180.64375 37.1125Q179.55 37.784374 178.34688 37.784374Q177.47188 37.784374 176.76875 37.409374Q176.08125 37.034374 175.62813 36.471874L175.62813 41.51875L173.8625 41.51875ZM175.45625 32.425Q175.45625 34.425 176.26875 35.378124Q177.08125 36.33125 178.2375 36.33125Q179.40938 36.33125 180.2375 35.346874Q181.08125 34.3625 181.08125 32.26875Q181.08125 30.3 180.25313 29.315624Q179.44063 28.315624 178.31563 28.315624Q177.19063 28.315624 176.31563 29.378124Q175.45625 30.425 175.45625 32.425ZM184.22188 32.3625Q184.22188 29.4875 185.81563 28.096874Q187.15938 26.940624 189.08125 26.940624Q191.22188 26.940624 192.56563 28.346874Q193.925 29.753124 193.925 32.221874Q193.925 34.221874 193.33125 35.378124Q192.7375 36.51875 191.58125 37.159374Q190.44063 37.784374 189.08125 37.784374Q186.89375 37.784374 185.55 36.39375Q184.22188 34.9875 184.22188 32.3625ZM186.01875 32.3625Q186.01875 34.3625 186.87813 35.346874Q187.75313 36.33125 189.08125 36.33125Q190.39375 36.33125 191.25313 35.346874Q192.12813 34.346874 192.12813 32.3Q192.12813 30.378124 191.25313 29.39375Q190.37813 28.39375 189.08125 28.39375Q187.75313 28.39375 186.87813 29.39375Q186.01875 30.378124 186.01875 32.3625ZM195.8625 41.51875L195.8625 27.175L197.47188 27.175L197.47188 28.51875Q198.03438 27.7375 198.7375 27.346874Q199.45625 26.940624 200.47188 26.940624Q201.8 26.940624 202.81563 27.628124Q203.83125 28.315624 204.34688 29.565624Q204.87813 30.8 204.87813 32.284374Q204.87813 33.878124 204.3 35.159374Q203.7375 36.425 202.64375 37.1125Q201.55 37.784374 200.34688 37.784374Q199.47188 37.784374 198.76875 37.409374Q198.08125 37.034374 197.62813 36.471874L197.62813 41.51875L195.8625 41.51875ZM197.45625 32.425Q197.45625 34.425 198.26875 35.378124Q199.08125 36.33125 200.2375 36.33125Q201.40938 36.33125 202.2375 35.346874Q203.08125 34.3625 203.08125 32.26875Q203.08125 30.3 202.25313 29.315624Q201.44063 28.315624 200.31563 28.315624Q199.19063 28.315624 198.31563 29.378124Q197.45625 30.425 197.45625 32.425ZM213.65938 37.55L213.65938 36.01875Q212.45625 37.784374 210.37813 37.784374Q209.45625 37.784374 208.65938 37.440624Q207.8625 37.08125 207.47188 36.55Q207.09688 36.01875 206.94063 35.2375Q206.83125 34.721874 206.83125 33.596874L206.83125 27.175L208.58125 27.175L208.58125 32.925Q208.58125 34.3 208.69063 34.784374Q208.8625 35.471874 209.39375 35.878124Q209.94063 36.26875 210.72188 36.26875Q211.51875 36.26875 212.20625 35.8625Q212.90938 35.45625 213.19063 34.76875Q213.4875 34.065624 213.4875 32.7375L213.4875 27.175L215.2375 27.175L215.2375 37.55L213.65938 37.55ZM216.83125 37.55L216.83125 23.2375L218.58125 23.2375L218.58125 37.55L216.83125 37.55ZM227.64375 36.26875Q226.65938 37.096874 225.75313 37.440624Q224.84688 37.784374 223.81563 37.784374Q222.1125 37.784374 221.19063 36.95625Q220.26875 36.1125 220.26875 34.815624Q220.26875 34.05 220.6125 33.425Q220.97188 32.8 221.53438 32.425Q222.09688 32.034374 222.8 31.83125Q223.31563 31.70625 224.3625 31.565624Q226.4875 31.315624 227.4875 30.971874Q227.50313 30.6125 227.50313 30.503124Q227.50313 29.440624 227.00313 28.9875Q226.33125 28.39375 225.00313 28.39375Q223.75313 28.39375 223.15938 28.83125Q222.58125 29.26875 222.3 30.378124L220.58125 30.14375Q220.81563 29.034374 221.34688 28.3625Q221.87813 27.675 222.89375 27.315624Q223.90938 26.940624 225.25313 26.940624Q226.58125 26.940624 227.40938 27.253124Q228.2375 27.565624 228.62813 28.05Q229.01875 28.51875 229.175 29.2375Q229.26875 29.690624 229.26875 30.8625L229.26875 33.20625Q229.26875 35.659374 229.37813 36.315624Q229.4875 36.95625 229.83125 37.55L227.9875 37.55Q227.72188 37.003124 227.64375 36.26875ZM227.4875 32.346874Q226.53438 32.7375 224.6125 33.003124Q223.53438 33.159374 223.08125 33.3625Q222.64375 33.55 222.39375 33.925Q222.14375 34.3 222.14375 34.76875Q222.14375 35.471874 222.675 35.940624Q223.20625 36.409374 224.2375 36.409374Q225.25313 36.409374 226.03438 35.971874Q226.83125 35.51875 227.20625 34.753124Q227.4875 34.14375 227.4875 32.9875L227.4875 32.346874ZM235.70625 35.971874L235.95625 37.534374Q235.22188 37.690624 234.62813 37.690624Q233.675 37.690624 233.14375 37.39375Q232.62813 37.08125 232.40938 36.596874Q232.19063 36.096874 232.19063 34.51875L232.19063 28.55L230.90938 28.55L230.90938 27.175L232.19063 27.175L232.19063 24.6125L233.94063 23.55L233.94063 27.175L235.70625 27.175L235.70625 28.55L233.94063 28.55L233.94063 34.6125Q233.94063 35.3625 234.03438 35.58125Q234.12813 35.784374 234.33125 35.925Q234.55 36.05 234.94063 36.05Q235.22188 36.05 235.70625 35.971874ZM237.87813 25.253124L237.87813 23.2375L239.64375 23.2375L239.64375 25.253124L237.87813 25.253124ZM237.87813 37.55L237.87813 27.175L239.64375 27.175L239.64375 37.55L237.87813 37.55ZM241.22188 32.3625Q241.22188 29.4875 242.81563 28.096874Q244.15938 26.940624 246.08125 26.940624Q248.22188 26.940624 249.56563 28.346874Q250.925 29.753124 250.925 32.221874Q250.925 34.221874 250.33125 35.378124Q249.7375 36.51875 248.58125 37.159374Q247.44063 37.784374 246.08125 37.784374Q243.89375 37.784374 242.55 36.39375Q241.22188 34.9875 241.22188 32.3625ZM243.01875 32.3625Q243.01875 34.3625 243.87813 35.346874Q244.75313 36.33125 246.08125 36.33125Q247.39375 36.33125 248.25313 35.346874Q249.12813 34.346874 249.12813 32.3Q249.12813 30.378124 248.25313 29.39375Q247.37813 28.39375 246.08125 28.39375Q244.75313 28.39375 243.87813 29.39375Q243.01875 30.378124 243.01875 32.3625ZM252.8625 37.55L252.8625 27.175L254.45625 27.175L254.45625 28.659374Q255.59688 26.940624 257.7531 26.940624Q258.6906 26.940624 259.47186 27.284374Q260.26874 27.6125 260.65936 28.159374Q261.05 28.70625 261.20624 29.45625Q261.3 29.95625 261.3 31.175L261.3 37.55L259.53436 37.55L259.53436 31.2375Q259.53436 30.159374 259.33124 29.628124Q259.1281 29.096874 258.59686 28.784374Q258.08124 28.471874 257.3781 28.471874Q256.2531 28.471874 255.44063 29.190624Q254.62813 29.89375 254.62813 31.878124L254.62813 37.55L252.8625 37.55Z" fill-rule="nonzero"/></svg>